<?xml version="1.0" encoding="UTF-8"?><svg id="a" xmlns="http://www.w3.org/2000/svg" viewBox="0 0 500 189.79"><defs><style>.am{fill:none;}.an{fill:#f6f6f7;}.ao{fill:#eeeef1;}.ap{fill:#eeeef0;}.aq{fill:#f0f0f2;}.ar{fill:#fcfcfc;}.as{fill:#fefefe;}.at{fill:#fbfbfb;}.au{fill:#fc6b0d;}.av{fill:#fdfdfd;}.aw{fill:#fdfdfe;}.ax{fill:#333450;}.ay{fill:#dadadf;}.b`{fill:#1e1f3e;}.ba{fill:#1c1d3d;}.bb{fill:#363753;}.bc{fill:#1b1c3c;}.bd{fill:#464760;}.be{fill:#464761;}.bf{fill:#292a48;}.bg{fill:#2b2c4a;}.bh{fill:#2e2f4c;}.bi{fill:#262745;}.bj{fill:#262746;}.bk{fill:#393a55;}.bl{fill:#585970;}.bm{fill:#282947;}</style></defs><g id="b" transform="translate(0 0.03)"><rect id="c" class="am" y=".07" width="495.37" height="189.71"/><path id="d" class="as" d="M499.98,158.16v31.62H185.93c-.33-.83-.04-1.77,.7-2.28,8.57-5.39,7.62-13.1,5.27-21.18-.99-2.17-1.38-4.56-1.13-6.93,1.63-2.83,4.7-3.04,7.35-3.8,25.28-7.13,40.12-33.42,36.89-58.97-3.8-29.58-24.02-48.3-51.88-48.66-34.91-.46-57.18,19.66-58.11,55.51-.63,23.92,12.38,45.04,37.13,52.2,2.9,.83,6.1,1.04,8.29,3.57,.48,2.35,.16,4.79-.91,6.94-2.39,8.13-3.39,15.81,5.27,21.32,.73,.51,1.02,1.46,.7,2.29H4.61V.07h2.63c3.3,4.74,1.32,10.17,1.87,15.27,.3,2.52-.45,5.53,2.63,5.71C8.27,14.53,8.07,6.76,11.2,.07H54.54c.62,6.46-4.03,11.29-5.16,17.01,.38-.55-.28,.61-.17,.42,4.45-7.14,8.79-5.39,12.96-.55-1.46-5.27-5.44-10.42-5.01-16.89h35.48c2.76,3.46,1.32,7.55,1.66,11.37-.16,2.8,.09,5.62,.74,8.35q6.01,1.11,9.91-3.29c.8-2.49-1.6-3.95-2.05-6.59,2.82-2.91,.4-6.42,.28-9.88h39.41c.11,3.95-5.16,3.12-5.47,6.68-.89,2.87-1,5.92-.32,8.85,5.03,5.81,9.38,6.52,13.77,2.33s4.16-9.88-.91-14.83c-.88-.88-2.33-1.32-1.82-3.04h35.48c.42,.46,.78,.96,1.08,1.5,.72,4.8,.8,9.67,.22,14.49-.32,.74,1,.42,.14,.28-.24,0-.12-.24,0-.66,.09-1.56,1.14-2.89,2.63-3.34,2.8-1.12,5.97,.25,7.09,3.05,.06,.16,.12,.33,.17,.49-1.72-2.86-1.37-6.51,.87-8.98,.16-2.29-1.66-3.36-2.11-5.03-.16-.61,0-1.26,.41-1.73h38.1c1.19,6.59-3.54,11.44-4.57,16.97,5.11-5.36,7.9-5.39,12.54,.25-.26-1.71-.75-3.38-1.48-4.95-.55-1.88-1.53-3.62-2.11-5.49-.69-2.21-2.29-4.39-.45-6.77h28.91c.84,.95,2.08,1.44,3.33,1.32,1.94,.09,3.95-.13,5.56,2.42,.9,3.49,0,7.64,.38,11.06,.28-3.43-.58-7.57,.46-11.24,1.42-2.42,3.48-2.18,5.45-2.26,1.24,.1,2.45-.39,3.27-1.32h30.22c.62,2.78-2.16,3.49-3.23,5.27-2.56,4.27-1.99,10.54,1.32,13.25,3.67,2.62,8.66,2.43,12.12-.46,2.95-3.66,3.28-8.78,.84-12.79-1.05-1.77-3.85-2.46-3.23-5.27h35.48c1.5,5.27-.36,10.74,.7,15.81,1.01-5.14-1.48-10.83,1.94-15.81h28.91c.43,.45,.8,.96,1.11,1.5,.72,4.8,.79,9.67,.21,14.49-.3,.74,1.01,.42,.14,.28-.24,0-.11-.24,0-.66,.07-1.57,1.13-2.93,2.63-3.39,2.78-1.12,5.94,.23,7.06,3.01,.06,.15,.11,.29,.16,.44-1.8-2.71-1.43-6.31,.88-8.6,.19-2.63-1.63-3.65-2.08-5.27-.2-.64-.04-1.33,.41-1.82h31.53c3.25,4.81,1.17,10.23,1.79,15.35,.3,2.49-.51,5.64,3.57,5.69,.67,.59,.75-1.03,.46-.2-5.36-2.9-3.52-6.38-1.08-10.54-2.37-1.76-2.86-5.1-1.1-7.47,.07-.1,.15-.2,.23-.29,2.71-2.49,6.71,.17,9.22-2.53h31.54c.84,2.49-2.63,2.74-2.57,3.59,.13,7.74,8.4,6.47,9.84,11.86-.22,3.51-2.49,5.07-5.99,5.56,3.79,.25,5.05-2.53,6.65-4.53-1.11-6.31-9.99-5.07-9.88-11.63,1.49-5.42,7.19-1.96,9.83-4.84h17.14V155.53c-2.91,.71-4.58-1.32-5.99-3.13-9.74-12.71-18.67-26.02-26.72-39.85-.61-1.11-.86-2.38-.71-3.64,.86-3.56,4.45-5.27,7.06-7.9,6.67-6.47,10.54-14.03,9.53-23.48-1.66-14.76-7.9-21.84-21.79-25.27-16.53-4.02-29.88-.11-37.79,11.06-2.07,2.86-3.19,6.31-3.19,9.84-.09,25.68,0,51.38,0,77.04-.18,1.81,.29,3.62,1.32,5.13,3.07,1.47,6.66,1.35,9.62-.32,4.44-13.55,1.32-28.06,3.22-41.4,10.54-3.95,15.64-2.28,20.68,5.84,6.02,9.68,11.86,19.5,18.33,28.86,4.17,7,12.35,10.56,20.32,8.85,2.07-.68,4.35-.3,6.1,1Z"/><path id="e" class="au" d="M191.22,159.11c1.43,3.14,2.57,6.4,3.43,9.74,1.62,9.68,2.63,14.65-8.71,20.94h-10.54c-9.99-6.15-11.86-11.4-8.02-22.99,.83-2.46,1.75-4.9,2.63-7.35-.83-3.54,3.04-5.76,2.63-8.91-.67-1.27-1.88-2.17-3.28-2.45-18.07-6.8-26.26-20.97-28.34-39.21-1.54-10.71,.17-21.64,4.9-31.38,13.03-25.74,46.39-28.35,63.94-5.4,13.29,17.35,12.9,54.36-4.56,68.51-5.05,4.07-10.96,6.16-16.39,9.04-.99,3.74,3.1,6.02,2.3,9.47Z"/><path id="f" class="bc" d="M499.98,158.16c-2.18-.03-4.35,.24-6.46,.83-7.91,1.83-16.12-1.49-20.55-8.29-6.91-9.87-13.11-20.16-19.43-30.38-1.22-2.68-3.08-5.02-5.43-6.8-3.96-.75-8.02-.75-11.98,0-.2,7.42-.37,14.82-.61,22.23-.16,7.4-.91,14.78-2.23,22.07-4.6,.64-9.24,.92-13.89,.83-.91-1.39-1.22-3.08-.87-4.7,.09-26.74,.33-53.49,.21-80.23-.23-5.75,2.12-11.3,6.42-15.12,7.39-6.81,15.72-10.93,26.1-9.74,4.34,.45,8.63,1.21,12.86,2.29,15.31,4.04,22.39,16.24,20.59,33.31-1.11,8.14-5.53,15.45-12.23,20.21-1.69,1.32-3.51,2.63-5.6,4.12,7.74,13.02,16.03,25.55,24.85,37.72,2.37,3.28,4.35,7.05,8.24,9v2.67Z"/><path id="g" class="bh" d="M103.16,.07c.93,1.88,3.51,2.63,3.54,5.14-.07,2.04-1.19,3.89-2.96,4.9,1.08,.77,2.04,1.69,2.86,2.73,1.65,2.61,.87,6.07-1.74,7.72-.28,.18-.58,.33-.89,.46-3.43,1.44-7.24,1.73-10.86,.84-.93-7.15-.09-14.49-.42-21.79h10.47Z"/><path id="h" class="bm" d="M321.28,.07c3.82,2.41,6.72,5.27,6.75,10.33,0,6.06-2.33,9.86-7.65,11.41-4.27,1.37-8.94-.16-11.58-3.79-2.83-4.57-2.5-10.43,.83-14.65,1.11-1.32,3.11-1.54,3.8-3.29h7.86Z"/><path id="i" class="bm" d="M147.83,.07c6.83,3.73,8.91,8.21,6.84,14.74-1.44,5.04-6.4,8.22-11.58,7.44-4.99-.62-8.75-4.84-8.8-9.87-.42-6.38,1.6-9.37,8.29-12.32h5.25Z"/><path id="j" class="bk" d="M443.47,.07l-.3,1.98c-1.24,1.24-2.83,.61-4.28,.76-1.45,.16-3.06-.37-4.51,.55-.56,1.62-.67,3.37-.3,5.05,2.37,2.11,5.94-.48,8.79,2.34-2.73,2.1-5.74,.55-8.71,1.82-.45,2.09-.38,4.26,.2,6.33,3.06,1.46,6.33-.34,9.14,1.32-2.92,2.33-4.66,2.5-13.18,1.17V.07h13.15Z"/><path id="k" class="ax" d="M235.87,.07c2,5.72,4.04,11.42,5.98,17.14,.53,1.51,1.79,3.13-.14,4.86-3.02-.92-2.63-4.15-3.95-6.22-2.32-.98-4.9-1.15-7.33-.49-2.56,1.75-1.32,6.33-6.19,6.84,1.91-7.9,5.27-14.91,7.74-22.16l3.89,.02Z"/><path id="l" class="bg" d="M57.16,.07c3.14,6.99,5.88,14.15,8.19,21.46q-3.37-.64-5.94-5.98c-2.1-.6-4.31-.73-6.47-.36-3.32,1.32-1.58,6.36-5.63,6.86-.09-4.28,3.28-14.48,7.22-21.99h2.62Z"/><path id="m" class="bf" d="M482.85,.07V2.33c-2.76,1.42-7.21-1.6-8.89,2.86,.34,2.73,2.37,3.49,4.42,4.33,2.25,.67,4.19,2.11,5.48,4.07,1.3,2.8,.13,6.12-2.63,7.48-3.28,2.02-6.59,1.62-10.91-1.66,4.04-.58,8.77,2.4,10.93-3.16-.99-5.13-7.51-3.72-9.58-7.69s.07-6.47,3.31-8.5h7.87Z"/><path id="n" class="bb" d="M11.2,.07c-.36,6.24-.36,12.49,0,18.72,3.02,1.63,6.26-.08,9.12,1.32-2.54,2.49-4.99,2.73-13.08,1.04V.07h3.96Z"/><path id="o" class="bc" d="M359.38,.07c-.08,5.84-.14,11.66-.28,17.5,0,1.61,.62,3.59-1.7,4.33-2-3.56-2.34-15.41-.65-21.84h2.62Z"/><path id="p" class="bl" d="M283.18,.07c-.43,.83,.38,2.41-1.43,2.41-5.16-.49-10.36-.49-15.52,0-1.62-.09-.88-1.62-1.45-2.36l18.4-.05Z"/><path id="q" class="be" d="M388.48,1.39l-.2-1.32h10.54c-.19,.41-.12,.89,.19,1.22-.63,1.1-1.66,1.91-2.87,2.27-1.19,.37-2.47,.4-3.68,.09-1.52-.35-2.9-1.14-3.98-2.27h0Z"/><path id="r" class="bd" d="M193.83,.07c-.22,.4-.15,.9,.16,1.24-.63,1.09-1.65,1.89-2.86,2.25-1.19,.37-2.47,.4-3.68,.09-1.51-.34-2.88-1.11-3.96-2.23l-.19-1.32,10.53-.04Z"/><path id="s" class="bc" d="M191.22,159.11l-6.59-10.12c.88-1.62,2.1-1.21,3.08-1.43,11.86-2.63,21.08-9.22,25.47-20.51,7.63-19.46,7.09-38.51-6.22-55.77-12.23-15.25-34.52-17.7-49.77-5.46-2.69,2.16-5.05,4.69-7,7.53-11.86,17.67-10.46,49.06,5.59,64.45,5.85,5.6,13.3,9.23,21.32,10.37l-7.06,11.32c-10.44-1.5-20.25-5.93-28.27-12.78-14.07-12.89-19.47-29.17-18.19-47.89,.49-7.66,2.42-15.17,5.69-22.12,5.9-13.19,17.24-23.17,31.08-27.35,12.35-4.05,25.63-4.24,38.09-.53,20.66,6.08,32.54,20.39,37.28,40.93,2.87,12.73,1.53,26.04-3.83,37.94-6.43,15.97-20.58,27.53-37.51,30.64-1.07,.2-2.12,.46-3.16,.78Z"/><path id="t" class="bc" d="M57.2,96.37c.55,1.57,2.12,1.48,3.19,2.04,10.17,4.85,16.59,15.18,16.44,26.45,.76,11.72-5.43,22.78-15.81,28.27-7.32,3.99-15.5,6.17-23.83,6.36-10.3,.52-20.62-.47-30.64-2.95-1.17-1.75-.59-3.78-.59-5.69-.05-24.59-.05-49.19,0-73.78-.03-14.33,13.87-28.26,28.16-28.26,6.77-.05,13.49,1.23,19.76,3.78,16.59,6.76,18.06,29.15,7.71,39.12-1.53,1.49-2.96,3.12-4.39,4.66Z"/><path id="u" class="bc" d="M349.25,55.75c3.75-2.74,7.84-4.99,12.16-6.68,3.95,.72,4.42,3.95,5.47,6.42,9.81,23.62,19.53,47.34,29.3,70.91,4.08,9.88,8.26,19.76,12.4,29.55-5.74,2.68-12.23,3.3-18.38,1.75-5.27-9.72-8.14-20.8-13.27-31.2h-42.16c-4.57,10.31-9.16,20.68-13.68,30.87-5.66,1.85-11.83,1.38-17.14-1.32l22.7-49.99c7.56-16.68,15.04-33.45,22.59-50.31Z"/><path id="v" class="bc" d="M312.07,50.52c.17,3.95-2.1,6.88-4.51,10.46-12.28,2.27-25.03,.2-37.97,1.32v37.22c12.92,.59,25.95,0,38.92,.34-.09,9.12-2.84,12.07-11.38,12.13-9.14,.08-18.29,0-27.79,0-.32,8-1.44,15.94-3.36,23.71-1.46,6.62-3.77,13.02-6.86,19.05-1.38,2.52-3.07,5.06-6.59,3.15-1.32-1.61-.83-3.43-.83-5.13,0-26.54-.02-53.07-.07-79.6,0-9.22,4.47-15.81,11.19-21.24,1.69-1.42,3.83-2.19,6.03-2.17,13.99,0,28,0,41.99,.09,.34,.01,.74,.38,1.22,.66Z"/><path id="w" class="ba" d="M91.76,158.16c-1.04-2.06-1.46-4.37-1.21-6.67V75.93c-.2-8.41,2.97-16.55,8.79-22.62,1.55-2.13,3.82-3.63,6.39-4.22,1.7,.64,2.78,2.33,2.63,4.15,.13,1.84,.09,3.51,.09,5.27,0,25.19-.08,50.38,0,75.57,.04,7.95-3.17,15.56-8.89,21.08-1.99,2.1-4.15,4.11-7.8,3.01Z"/><path id="x" class="bj" d="M388.48,1.39c1.32,.14,2.88-.69,3.71,1.07,.83,1.75-.19,4.28,1.84,5.71,3.95-.84,1.79-3.7,2.17-5.65,.46-1.45,1.78-1,2.78-1.25,2.52,.65,3.22,2.63,3.59,4.81-.3,2.12-1.52,3.99-3.33,5.13,2.09,3.31,3.22,7.13,3.27,11.04-4.74-1.41-2.91-6.34-5.53-8.37-1.5-1.16-3.52-1.42-5.27-.69-1.51,2.81,.4,5.89-1.32,8.4-.09,.14-.34,.19-.51,.28-2.07-3.07-2.39-7.83-1.41-20.47Z"/><path id="y" class="bi" d="M183.51,1.39c1.32,.16,2.87-.69,3.7,1.07s-.2,4.28,1.84,5.71c3.95-.84,1.78-3.72,2.17-5.65,.46-1.4,1.78-.96,2.76-1.2,2.52,.66,3.2,2.63,3.57,4.81-.3,2.11-1.51,3.99-3.32,5.13,2.05,3.33,3.19,7.13,3.32,11.04-4.78-1.42-2.92-6.36-5.57-8.39-1.45-1.08-3.35-1.37-5.06-.76-2.21,2.49,.71,6.36-1.96,8.91-2.14-3.3-2.5-8.03-1.46-20.65Z"/><path id="a`" class="b`" d="M266.22,2.42c5.03-1.74,10.49-1.74,15.52,0-1.84,.66-3.95-.28-5.94,.91-.99,6.02,.55,12.36-1.04,19.04-3.82-2.63-1.77-6.16-2.11-8.98-.22-3.2-.25-6.41-.09-9.62-1.98-1.92-4.46-.43-6.34-1.34Z"/><path id="aa" class="av" d="M436.52,101.51V61.17c5.05-1.43,10.39-1.56,15.51-.37,6.86,1.31,12.3,6.54,13.87,13.35,1.36,4.88,1.31,10.05-.13,14.91-1.56,7.31-7.86,12.64-15.32,12.99-4.63,.72-9.36,.54-13.92-.53h0Z"/><path id="ab" class="an" d="M104.43,15.68q-2.82,3.72-7.77,3.81c-.59-2.3-.77-4.68-.53-7.04,3.64-1.18,6.43-.87,8.3,3.23Z"/><path id="ac" class="at" d="M102.58,7.85c-1.71,1.42-4.02,1.89-6.15,1.24V3.28c1.73-.89,3.78-.89,5.51,0,1.43,1,1.77,2.96,.78,4.38-.04,.06-.09,.12-.13,.17h0Z"/><path id="ad" class="at" d="M314.37,3.04c1.8-.52,3.7-.58,5.53-.2,3.47,1.68,5.47,5.4,4.94,9.22-.09,3.63-2.57,6.76-6.08,7.68-3.61,.58-7.05-1.72-7.9-5.27-1.24-3.99-.22-7.37,3.52-11.44Z"/><path id="ae" class="ar" d="M141.77,2.87h5.42c.53,.33,1.12,.63,1.63,1.03,2.73,2.34,3.86,6.06,2.9,9.53-.4,3.39-3.1,6.05-6.49,6.4-3.42,.23-6.51-2.06-7.28-5.4-1.52-4.27,.06-9.04,3.83-11.56Z"/><path id="af" class="aq" d="M233.93,4.3l2.76,8.21c-1.94,.78-4.11,.73-6.01-.14,.64-2.84,1.74-5.57,3.24-8.06Z"/><path id="ag" class="ay" d="M58.47,12.58c-1.68,.81-3.64,.76-5.27-.14-.59-2.82,1.48-4.93,1.67-7.59q2.44,2.5,3.6,7.73Z"/><path id="ah" class="ao" d="M396.2,2.54c2.14,.58,3.4,2.78,2.82,4.92-.08,.29-.19,.57-.33,.84-1.79,2.06-4.68,2.78-7.22,1.79-.37-2.53-1.42-5.15,.71-7.6l4.02,.05Z"/><path id="ai" class="ap" d="M191.23,2.54c2.14,.62,3.38,2.85,2.76,5-.08,.27-.18,.53-.31,.77-1.78,2.08-4.68,2.79-7.22,1.77-.32-2.53-1.4-5.14,.75-7.59l4.02,.05Z"/><path id="aj" class="as" d="M23.28,146.99v-41.37c7.86-2.1,16.2-1.37,23.58,2.05,8.48,3.87,11.86,11.25,10.54,21.82-1.01,9.24-8.1,16.64-17.29,18.05-5.59,.94-11.32,.75-16.84-.55Z"/><path id="ak" class="av" d="M41.5,93.61H23.49V60.9c5.36-1.16,10.92-.97,16.19,.55,5.93,1.49,10.3,6.53,10.92,12.61,1.03,7.94-.9,14.78-9.1,19.55Z"/><path id="al" class="aw" d="M357.69,73.85c4.99,12.99,10,25.99,15.2,39.53h-32.93c4.94-13.55,10.7-26.48,16.26-39.53h1.46Z"/></g></svg>