<?xml version="1.0" encoding="UTF-8"?><svg id="a" xmlns="http://www.w3.org/2000/svg" viewBox="0 0 513.74 696.17"><defs><style>.c{fill:#5597d1;}</style></defs><path id="b" class="c" d="M0,696.17v-6.5H8.42v6.5H0ZM0,349.42v-6.5H8.42v6.5H0Zm42.11,346.75v-6.5h8.42v6.5h-8.42Zm0-346.75v-6.5h8.42v6.5h-8.42Zm42.11,346.75v-6.5h8.42v6.5h-8.42Zm0-346.75v-6.5h8.42v6.5h-8.42Zm42.1,346.75v-6.5h8.42v6.5h-8.42Zm0-346.75v-6.5h8.42v6.5h-8.42Zm42.12,346.75v-6.5h8.42v6.5h-8.42Zm0-346.75v-6.5h8.42v6.5h-8.42Zm42.11,346.75v-6.5h8.42v6.5h-8.42Zm0-346.75v-6.5h8.42v6.5h-8.42Zm42.11,346.75v-6.5h8.42v6.5h-8.42Zm0-346.75v-6.5h8.42v6.5h-8.42Zm42.11,346.75v-6.5h8.42v6.5h-8.42Zm0-346.75v-6.5h8.42v6.5h-8.42Zm42.11,346.75v-6.5h8.42v6.5h-8.42Zm0-346.75v-6.5h8.42v6.5h-8.42Zm42.11,346.75v-6.5h8.42v6.5h-8.42Zm0-346.75v-6.5h8.42v6.5h-8.42Zm42.11,346.75v-6.5h8.42v6.5h-8.42Zm0-346.75v-6.5h8.42v6.5h-8.42Zm42.11,346.75v-6.5h8.42v6.5h-8.42Zm0-346.75v-6.5h8.42v6.5h-8.42Zm42.11,346.75v-6.5h8.42v6.5h-8.42Zm0-346.75v-6.5h8.42v6.5h-8.42ZM0,661.49v-6.5H8.42v6.5H0ZM0,314.75v-6.5H8.42v6.5H0Zm42.11,346.75v-6.5h8.42v6.5h-8.42Zm0-346.75v-6.5h8.42v6.5h-8.42Zm42.11,346.75v-6.5h8.42v6.5h-8.42Zm0-346.75v-6.5h8.42v6.5h-8.42Zm42.1,346.75v-6.5h8.42v6.5h-8.42Zm0-346.75v-6.5h8.42v6.5h-8.42Zm42.12,346.75v-6.5h8.42v6.5h-8.42Zm0-346.75v-6.5h8.42v6.5h-8.42Zm42.11,346.75v-6.5h8.42v6.5h-8.42Zm0-346.75v-6.5h8.42v6.5h-8.42Zm42.11,346.75v-6.5h8.42v6.5h-8.42Zm0-346.75v-6.5h8.42v6.5h-8.42Zm42.11,346.75v-6.5h8.42v6.5h-8.42Zm0-346.75v-6.5h8.42v6.5h-8.42Zm42.11,346.75v-6.5h8.42v6.5h-8.42Zm0-346.75v-6.5h8.42v6.5h-8.42Zm42.11,346.75v-6.5h8.42v6.5h-8.42Zm0-346.75v-6.5h8.42v6.5h-8.42Zm42.11,346.75v-6.5h8.42v6.5h-8.42Zm0-346.75v-6.5h8.42v6.5h-8.42Zm42.11,346.75v-6.5h8.42v6.5h-8.42Zm0-346.75v-6.5h8.42v6.5h-8.42Zm42.11,346.75v-6.5h8.42v6.5h-8.42Zm0-346.75v-6.5h8.42v6.5h-8.42ZM0,626.82v-6.5H8.42v6.5H0ZM0,280.07v-6.5H8.42v6.5H0Zm42.11,346.75v-6.5h8.42v6.5h-8.42Zm0-346.75v-6.5h8.42v6.5h-8.42Zm42.11,346.75v-6.5h8.42v6.5h-8.42Zm0-346.75v-6.5h8.42v6.5h-8.42Zm42.1,346.75v-6.5h8.42v6.5h-8.42Zm0-346.75v-6.5h8.42v6.5h-8.42Zm42.12,346.75v-6.5h8.42v6.5h-8.42Zm0-346.75v-6.5h8.42v6.5h-8.42Zm42.11,346.75v-6.5h8.42v6.5h-8.42Zm0-346.75v-6.5h8.42v6.5h-8.42Zm42.11,346.75v-6.5h8.42v6.5h-8.42Zm0-346.75v-6.5h8.42v6.5h-8.42Zm42.11,346.75v-6.5h8.42v6.5h-8.42Zm0-346.75v-6.5h8.42v6.5h-8.42Zm42.11,346.75v-6.5h8.42v6.5h-8.42Zm0-346.75v-6.5h8.42v6.5h-8.42Zm42.11,346.75v-6.5h8.42v6.5h-8.42Zm0-346.75v-6.5h8.42v6.5h-8.42Zm42.11,346.75v-6.5h8.42v6.5h-8.42Zm0-346.75v-6.5h8.42v6.5h-8.42Zm42.11,346.75v-6.5h8.42v6.5h-8.42Zm0-346.75v-6.5h8.42v6.5h-8.42Zm42.11,346.75v-6.5h8.42v6.5h-8.42Zm0-346.75v-6.5h8.42v6.5h-8.42ZM0,592.14v-6.5H8.42v6.5H0ZM0,245.4v-6.5H8.42v6.5H0Zm42.11,346.75v-6.5h8.42v6.5h-8.42Zm0-346.75v-6.5h8.42v6.5h-8.42Zm42.11,346.75v-6.5h8.42v6.5h-8.42Zm0-346.75v-6.5h8.42v6.5h-8.42Zm42.1,346.75v-6.5h8.42v6.5h-8.42Zm0-346.75v-6.5h8.42v6.5h-8.42Zm42.12,346.75v-6.5h8.42v6.5h-8.42Zm0-346.75v-6.5h8.42v6.5h-8.42Zm42.11,346.75v-6.5h8.42v6.5h-8.42Zm0-346.75v-6.5h8.42v6.5h-8.42Zm42.11,346.75v-6.5h8.42v6.5h-8.42Zm0-346.75v-6.5h8.42v6.5h-8.42Zm42.11,346.75v-6.5h8.42v6.5h-8.42Zm0-346.75v-6.5h8.42v6.5h-8.42Zm42.11,346.75v-6.5h8.42v6.5h-8.42Zm0-346.75v-6.5h8.42v6.5h-8.42Zm42.11,346.75v-6.5h8.42v6.5h-8.42Zm0-346.75v-6.5h8.42v6.5h-8.42Zm42.11,346.75v-6.5h8.42v6.5h-8.42Zm0-346.75v-6.5h8.42v6.5h-8.42Zm42.11,346.75v-6.5h8.42v6.5h-8.42Zm0-346.75v-6.5h8.42v6.5h-8.42Zm42.11,346.75v-6.5h8.42v6.5h-8.42Zm0-346.75v-6.5h8.42v6.5h-8.42ZM0,557.47v-6.5H8.42v6.5H0ZM0,210.72v-6.5H8.42v6.5H0Zm42.11,346.75v-6.5h8.42v6.5h-8.42Zm0-346.75v-6.5h8.42v6.5h-8.42Zm42.11,346.75v-6.5h8.42v6.5h-8.42Zm0-346.75v-6.5h8.42v6.5h-8.42Zm42.1,346.75v-6.5h8.42v6.5h-8.42Zm0-346.75v-6.5h8.42v6.5h-8.42Zm42.12,346.74v-6.5h8.42v6.5h-8.42Zm0-346.75v-6.5h8.42v6.5h-8.42Zm42.11,346.74v-6.5h8.42v6.5h-8.42Zm0-346.75v-6.5h8.42v6.5h-8.42Zm42.11,346.74v-6.5h8.42v6.5h-8.42Zm0-346.75v-6.5h8.42v6.5h-8.42Zm42.11,346.74v-6.5h8.42v6.5h-8.42Zm0-346.75v-6.5h8.42v6.5h-8.42Zm42.11,346.74v-6.5h8.42v6.5h-8.42Zm0-346.75v-6.5h8.42v6.5h-8.42Zm42.11,346.74v-6.5h8.42v6.5h-8.42Zm0-346.75v-6.5h8.42v6.5h-8.42Zm42.11,346.74v-6.5h8.42v6.5h-8.42Zm0-346.75v-6.5h8.42v6.5h-8.42Zm42.11,346.74v-6.5h8.42v6.5h-8.42Zm0-346.75v-6.5h8.42v6.5h-8.42Zm42.11,346.74v-6.5h8.42v6.5h-8.42Zm0-346.75v-6.5h8.42v6.5h-8.42ZM0,522.8v-6.5H8.42v6.5H0ZM0,176.05v-6.5H8.42v6.5H0Zm42.11,346.75v-6.5h8.42v6.5h-8.42Zm0-346.75v-6.5h8.42v6.5h-8.42Zm42.11,346.75v-6.5h8.42v6.5h-8.42Zm0-346.75v-6.5h8.42v6.5h-8.42Zm42.1,346.75v-6.5h8.42v6.5h-8.42Zm0-346.75v-6.5h8.42v6.5h-8.42Zm42.12,346.75v-6.5h8.42v6.5h-8.42Zm0-346.75v-6.5h8.42v6.5h-8.42Zm42.11,346.75v-6.5h8.42v6.5h-8.42Zm0-346.75v-6.5h8.42v6.5h-8.42Zm42.11,346.75v-6.5h8.42v6.5h-8.42Zm0-346.75v-6.5h8.42v6.5h-8.42Zm42.11,346.75v-6.5h8.42v6.5h-8.42Zm0-346.75v-6.5h8.42v6.5h-8.42Zm42.11,346.75v-6.5h8.42v6.5h-8.42Zm0-346.75v-6.5h8.42v6.5h-8.42Zm42.11,346.75v-6.5h8.42v6.5h-8.42Zm0-346.75v-6.5h8.42v6.5h-8.42Zm42.11,346.75v-6.5h8.42v6.5h-8.42Zm0-346.75v-6.5h8.42v6.5h-8.42Zm42.11,346.75v-6.5h8.42v6.5h-8.42Zm0-346.75v-6.5h8.42v6.5h-8.42Zm42.11,346.75v-6.5h8.42v6.5h-8.42Zm0-346.75v-6.5h8.42v6.5h-8.42ZM0,488.12v-6.5H8.42v6.5H0ZM0,141.37v-6.5H8.42v6.5H0ZM42.11,488.12v-6.5h8.42v6.5h-8.42Zm0-346.75v-6.5h8.42v6.5h-8.42Zm42.11,346.75v-6.5h8.42v6.5h-8.42Zm0-346.75v-6.5h8.42v6.5h-8.42Zm42.1,346.75v-6.5h8.42v6.5h-8.42Zm0-346.75v-6.5h8.42v6.5h-8.42Zm42.12,346.75v-6.5h8.42v6.5h-8.42Zm0-346.75v-6.5h8.42v6.5h-8.42Zm42.11,346.75v-6.5h8.42v6.5h-8.42Zm0-346.75v-6.5h8.42v6.5h-8.42Zm42.11,346.75v-6.5h8.42v6.5h-8.42Zm0-346.75v-6.5h8.42v6.5h-8.42Zm42.11,346.75v-6.5h8.42v6.5h-8.42Zm0-346.75v-6.5h8.42v6.5h-8.42Zm42.11,346.75v-6.5h8.42v6.5h-8.42Zm0-346.75v-6.5h8.42v6.5h-8.42Zm42.11,346.75v-6.5h8.42v6.5h-8.42Zm0-346.75v-6.5h8.42v6.5h-8.42Zm42.11,346.75v-6.5h8.42v6.5h-8.42Zm0-346.75v-6.5h8.42v6.5h-8.42Zm42.11,346.75v-6.5h8.42v6.5h-8.42Zm0-346.75v-6.5h8.42v6.5h-8.42Zm42.11,346.75v-6.5h8.42v6.5h-8.42Zm0-346.75v-6.5h8.42v6.5h-8.42ZM0,453.45v-6.5H8.42v6.5H0ZM0,106.7v-6.5H8.42v6.5H0ZM42.11,453.45v-6.5h8.42v6.5h-8.42Zm0-346.75v-6.5h8.42v6.5h-8.42Zm42.11,346.75v-6.5h8.42v6.5h-8.42Zm0-346.75v-6.5h8.42v6.5h-8.42Zm42.1,346.75v-6.5h8.42v6.5h-8.42Zm0-346.75v-6.5h8.42v6.5h-8.42Zm42.12,346.75v-6.5h8.42v6.5h-8.42Zm0-346.75v-6.5h8.42v6.5h-8.42Zm42.11,346.75v-6.5h8.42v6.5h-8.42Zm0-346.75v-6.5h8.42v6.5h-8.42Zm42.11,346.75v-6.5h8.42v6.5h-8.42Zm0-346.75v-6.5h8.42v6.5h-8.42Zm42.11,346.75v-6.5h8.42v6.5h-8.42Zm0-346.75v-6.5h8.42v6.5h-8.42Zm42.11,346.75v-6.5h8.42v6.5h-8.42Zm0-346.75v-6.5h8.42v6.5h-8.42Zm42.11,346.75v-6.5h8.42v6.5h-8.42Zm0-346.75v-6.5h8.42v6.5h-8.42Zm42.11,346.75v-6.5h8.42v6.5h-8.42Zm0-346.75v-6.5h8.42v6.5h-8.42Zm42.11,346.75v-6.5h8.42v6.5h-8.42Zm0-346.75v-6.5h8.42v6.5h-8.42Zm42.11,346.75v-6.5h8.42v6.5h-8.42Zm0-346.75v-6.5h8.42v6.5h-8.42ZM0,418.77v-6.5H8.42v6.5H0ZM0,72.03v-6.5H8.42v6.5H0ZM42.11,418.77v-6.5h8.42v6.5h-8.42Zm0-346.75v-6.5h8.42v6.51h-8.42Zm42.11,346.73v-6.5h8.42v6.5h-8.42Zm0-346.75v-6.5h8.42v6.51h-8.42Zm42.1,346.74v-6.5h8.42v6.5h-8.42Zm0-346.74v-6.5h8.42v6.5h-8.42Zm42.12,346.74v-6.5h8.42v6.5h-8.42Zm0-346.75v-6.5h8.42v6.51h-8.42Zm42.11,346.73v-6.5h8.42v6.5h-8.42Zm0-346.75v-6.5h8.42v6.51h-8.42Zm42.11,346.73v-6.5h8.42v6.5h-8.42Zm0-346.75v-6.5h8.42v6.51h-8.42Zm42.11,346.73v-6.5h8.42v6.5h-8.42Zm0-346.75v-6.5h8.42v6.51h-8.42Zm42.11,346.73v-6.5h8.42v6.5h-8.42Zm0-346.75v-6.5h8.42v6.51h-8.42Zm42.11,346.73v-6.5h8.42v6.5h-8.42Zm0-346.75v-6.5h8.42v6.51h-8.42Zm42.11,346.73v-6.5h8.42v6.5h-8.42Zm0-346.75v-6.5h8.42v6.51h-8.42Zm42.11,346.73v-6.5h8.42v6.5h-8.42Zm0-346.75v-6.5h8.42v6.51h-8.42Zm42.11,346.73v-6.5h8.42v6.5h-8.42Zm0-346.75v-6.5h8.42v6.51h-8.42ZM0,384.1v-6.5H8.42v6.5H0ZM0,37.34v-6.5H8.42v6.5H0ZM42.11,384.1v-6.5h8.42v6.5h-8.42Zm0-346.75v-6.5h8.42v6.49h-8.42Zm42.11,346.77v-6.5h8.42v6.5h-8.42Zm0-346.75v-6.5h8.42v6.49h-8.42Zm42.1,346.76v-6.5h8.42v6.5h-8.42Zm0-346.76v-6.5h8.42v6.5h-8.42Zm42.12,346.76v-6.5h8.42v6.5h-8.42Zm0-346.75v-6.5h8.42v6.49h-8.42Zm42.11,346.77v-6.5h8.42v6.5h-8.42Zm0-346.75v-6.5h8.42v6.49h-8.42Zm42.11,346.77v-6.5h8.42v6.5h-8.42Zm0-346.75v-6.5h8.42v6.49h-8.42Zm42.11,346.77v-6.5h8.42v6.5h-8.42Zm0-346.75v-6.5h8.42v6.49h-8.42Zm42.11,346.77v-6.5h8.42v6.5h-8.42Zm0-346.75v-6.5h8.42v6.49h-8.42Zm42.11,346.77v-6.5h8.42v6.5h-8.42Zm0-346.75v-6.5h8.42v6.49h-8.42Zm42.11,346.77v-6.5h8.42v6.5h-8.42Zm0-346.75v-6.5h8.42v6.49h-8.42Zm42.11,346.77v-6.5h8.42v6.5h-8.42Zm0-346.75v-6.5h8.42v6.49h-8.42Zm42.11,346.77v-6.5h8.42v6.5h-8.42Zm0-346.75v-6.5h8.42v6.49h-8.42ZM0,6.61V0H8.42V6.61H0Zm42.11,0V0h8.42V6.61h-8.42Zm42.11,0V0h8.42V6.61h-8.42Zm42.1,0V0h8.42V6.61h-8.42Zm42.12,0V0h8.42V6.61h-8.42Zm42.11,0V0h8.42V6.61h-8.42Zm42.11,0V0h8.42V6.61h-8.42Zm42.11,0V0h8.42V6.61h-8.42Zm42.11,0V0h8.42V6.61h-8.42Zm42.11,0V0h8.42V6.61h-8.42Zm42.11,0V0h8.42V6.61h-8.42Zm42.11,0V0h8.42V6.61h-8.42Zm42.11,0V0h8.42V6.61h-8.42Z"/></svg>