<?xml version="1.0" encoding="utf-8"?>
<!-- Generator: Adobe Illustrator 26.1.0, SVG Export Plug-In . SVG Version: 6.00 Build 0)  -->
<svg version="1.1" id="a" xmlns="http://www.w3.org/2000/svg" xmlns:xlink="http://www.w3.org/1999/xlink" x="0px" y="0px"
	 viewBox="0 0 1366 513.7" style="enable-background:new 0 0 1366 513.7;" xml:space="preserve">
<style type="text/css">
	.st0{fill:#5597D1;}
</style>
<path id="b" class="st0" d="M0,0h6.5v8.4H0V0z M346.8,0h6.5v8.4h-6.5V0z M0,42.1h6.5v8.4H0V42.1z M346.8,42.1h6.5v8.4h-6.5V42.1z
	 M0,84.2h6.5v8.4H0V84.2z M346.8,84.2h6.5v8.4h-6.5V84.2z M0,126.3h6.5v8.4H0C0,134.7,0,126.3,0,126.3z M346.8,126.3h6.5v8.4h-6.5
	C346.8,134.7,346.8,126.3,346.8,126.3z M0,168.4h6.5v8.4H0V168.4z M346.8,168.4h6.5v8.4h-6.5V168.4z M0,210.6h6.5v8.4H0V210.6z
	 M346.8,210.6h6.5v8.4h-6.5V210.6z M0,252.7h6.5v8.4H0V252.7L0,252.7z M346.8,252.7h6.5v8.4h-6.5V252.7L346.8,252.7z M0,294.8h6.5
	v8.4H0V294.8z M346.8,294.8h6.5v8.4h-6.5V294.8z M0,336.9h6.5v8.4H0V336.9z M346.8,336.9h6.5v8.4h-6.5V336.9z M0,379h6.5v8.4H0V379z
	 M346.8,379h6.5v8.4h-6.5V379z M0,421.1h6.5v8.4H0V421.1z M346.8,421.1h6.5v8.4h-6.5V421.1z M0,463.2h6.5v8.4H0V463.2z M346.8,463.2
	h6.5v8.4h-6.5V463.2z M0,505.3h6.5v8.4H0V505.3L0,505.3z M346.8,505.3h6.5v8.4h-6.5V505.3L346.8,505.3z M34.7,0h6.5v8.4h-6.5V0z
	 M381.4,0h6.5v8.4h-6.5V0z M34.7,42.1h6.5v8.4h-6.5V42.1L34.7,42.1z M381.4,42.1h6.5v8.4h-6.5V42.1z M34.7,84.2h6.5v8.4h-6.5V84.2
	L34.7,84.2z M381.4,84.2h6.5v8.4h-6.5V84.2z M34.7,126.3h6.5v8.4h-6.5V126.3C34.7,126.3,34.7,126.3,34.7,126.3z M381.4,126.3h6.5
	v8.4h-6.5C381.4,134.7,381.4,126.3,381.4,126.3z M34.7,168.4h6.5v8.4h-6.5V168.4L34.7,168.4z M381.4,168.4h6.5v8.4h-6.5V168.4z
	 M34.7,210.6h6.5v8.4h-6.5V210.6L34.7,210.6z M381.4,210.6h6.5v8.4h-6.5V210.6z M34.7,252.7h6.5v8.4h-6.5V252.7L34.7,252.7
	L34.7,252.7z M381.4,252.7h6.5v8.4h-6.5V252.7L381.4,252.7z M34.7,294.8h6.5v8.4h-6.5V294.8L34.7,294.8z M381.4,294.8h6.5v8.4h-6.5
	V294.8z M34.7,336.9h6.5v8.4h-6.5V336.9L34.7,336.9z M381.4,336.9h6.5v8.4h-6.5V336.9z M34.7,379h6.5v8.4h-6.5V379L34.7,379z
	 M381.4,379h6.5v8.4h-6.5V379z M34.7,421.1h6.5v8.4h-6.5V421.1L34.7,421.1z M381.4,421.1h6.5v8.4h-6.5V421.1z M34.7,463.2h6.5v8.4
	h-6.5V463.2L34.7,463.2z M381.4,463.2h6.5v8.4h-6.5V463.2z M34.7,505.3h6.5v8.4h-6.5V505.3L34.7,505.3L34.7,505.3z M381.4,505.3h6.5
	v8.4h-6.5V505.3L381.4,505.3z M69.3,0h6.5v8.4h-6.5V0z M416.1,0h6.5v8.4h-6.5V0z M69.3,42.1h6.5v8.4h-6.5V42.1z M416.1,42.1h6.5v8.4
	h-6.5V42.1z M69.3,84.2h6.5v8.4h-6.5V84.2z M416.1,84.2h6.5v8.4h-6.5V84.2z M69.3,126.3h6.5v8.4h-6.5
	C69.3,134.7,69.3,126.3,69.3,126.3z M416.1,126.3h6.5v8.4h-6.5C416.1,134.7,416.1,126.3,416.1,126.3z M69.3,168.4h6.5v8.4h-6.5
	V168.4z M416.1,168.4h6.5v8.4h-6.5V168.4z M69.3,210.6h6.5v8.4h-6.5V210.6z M416.1,210.6h6.5v8.4h-6.5V210.6z M69.3,252.7h6.5v8.4
	h-6.5V252.7L69.3,252.7z M416.1,252.7h6.5v8.4h-6.5V252.7L416.1,252.7z M69.4,294.8h6.5v8.4h-6.5V294.8z M416.1,294.8h6.5v8.4h-6.5
	V294.8z M69.4,336.9h6.5v8.4h-6.5V336.9z M416.1,336.9h6.5v8.4h-6.5V336.9z M69.4,379h6.5v8.4h-6.5V379z M416.1,379h6.5v8.4h-6.5
	V379z M69.4,421.1h6.5v8.4h-6.5V421.1z M416.1,421.1h6.5v8.4h-6.5V421.1z M69.4,463.2h6.5v8.4h-6.5V463.2z M416.1,463.2h6.5v8.4
	h-6.5V463.2z M69.4,505.3h6.5v8.4h-6.5V505.3L69.4,505.3z M416.1,505.3h6.5v8.4h-6.5V505.3L416.1,505.3z M104,0h6.5v8.4H104V0z
	 M450.8,0h6.5v8.4h-6.5V0z M104,42.1h6.5v8.4H104V42.1z M450.8,42.1h6.5v8.4h-6.5V42.1z M104,84.2h6.5v8.4H104V84.2z M450.8,84.2
	h6.5v8.4h-6.5V84.2z M104,126.3h6.5v8.4H104C104,134.7,104,126.3,104,126.3z M450.8,126.3h6.5v8.4h-6.5
	C450.8,134.7,450.8,126.3,450.8,126.3z M104,168.4h6.5v8.4H104V168.4z M450.8,168.4h6.5v8.4h-6.5V168.4z M104,210.6h6.5v8.4H104
	V210.6z M450.8,210.6h6.5v8.4h-6.5V210.6z M104,252.7h6.5v8.4H104V252.7L104,252.7z M450.8,252.7h6.5v8.4h-6.5V252.7L450.8,252.7z
	 M104,294.8h6.5v8.4H104V294.8z M450.8,294.8h6.5v8.4h-6.5V294.8z M104,336.9h6.5v8.4H104V336.9z M450.8,336.9h6.5v8.4h-6.5V336.9z
	 M104,379h6.5v8.4H104V379z M450.8,379h6.5v8.4h-6.5V379z M104,421.1h6.5v8.4H104V421.1z M450.8,421.1h6.5v8.4h-6.5V421.1z
	 M104,463.2h6.5v8.4H104V463.2z M450.8,463.2h6.5v8.4h-6.5V463.2z M104,505.3h6.5v8.4H104V505.3L104,505.3z M450.8,505.3h6.5v8.4
	h-6.5V505.3L450.8,505.3z M138.7,0h6.5v8.4h-6.5V0z M485.5,0h6.5v8.4h-6.5V0z M138.7,42.1h6.5v8.4h-6.5V42.1z M485.5,42.1h6.5v8.4
	h-6.5V42.1z M138.7,84.2h6.5v8.4h-6.5V84.2z M485.5,84.2h6.5v8.4h-6.5V84.2L485.5,84.2z M138.7,126.3h6.5v8.4h-6.5
	C138.7,134.7,138.7,126.3,138.7,126.3z M485.5,126.3h6.5v8.4h-6.5C485.5,134.7,485.5,126.3,485.5,126.3z M138.7,168.4h6.5v8.4h-6.5
	V168.4z M485.5,168.4h6.5v8.4h-6.5V168.4z M138.7,210.6h6.5v8.4h-6.5V210.6z M485.5,210.6h6.5v8.4h-6.5V210.6z M138.7,252.7h6.5v8.4
	h-6.5V252.7L138.7,252.7z M485.5,252.7h6.5v8.4h-6.5V252.7L485.5,252.7z M138.7,294.8h6.5v8.4h-6.5V294.8z M485.5,294.8h6.5v8.4
	h-6.5V294.8z M138.8,336.9h6.5v8.4h-6.5V336.9z M485.5,336.9h6.5v8.4h-6.5V336.9z M138.8,379h6.5v8.4h-6.5V379z M485.5,379h6.5v8.4
	h-6.5V379z M138.8,421.1h6.5v8.4h-6.5V421.1z M485.5,421.1h6.5v8.4h-6.5V421.1z M138.8,463.2h6.5v8.4h-6.5V463.2z M485.5,463.2h6.5
	v8.4h-6.5V463.2z M138.8,505.3h6.5v8.4h-6.5V505.3L138.8,505.3z M485.5,505.3h6.5v8.4h-6.5V505.3L485.5,505.3z M173.4,0h6.5v8.4
	h-6.5V0z M520.1,0h6.5v8.4h-6.5V0z M173.4,42.1h6.5v8.4h-6.5V42.1z M520.1,42.1h6.5v8.4h-6.5V42.1z M173.4,84.2h6.5v8.4h-6.5V84.2z
	 M520.1,84.2h6.5v8.4h-6.5V84.2z M173.4,126.3h6.5v8.4h-6.5C173.4,134.7,173.4,126.3,173.4,126.3z M520.1,126.3h6.5v8.4h-6.5
	C520.1,134.7,520.1,126.3,520.1,126.3z M173.4,168.4h6.5v8.4h-6.5V168.4z M520.1,168.4h6.5v8.4h-6.5V168.4z M173.4,210.6h6.5v8.4
	h-6.5V210.6z M520.1,210.6h6.5v8.4h-6.5V210.6z M173.4,252.7h6.5v8.4h-6.5V252.7L173.4,252.7z M520.1,252.7h6.5v8.4h-6.5V252.7
	L520.1,252.7z M173.4,294.8h6.5v8.4h-6.5V294.8z M520.1,294.8h6.5v8.4h-6.5V294.8z M173.4,336.9h6.5v8.4h-6.5V336.9z M520.1,336.9
	h6.5v8.4h-6.5V336.9z M173.4,379h6.5v8.4h-6.5V379z M520.1,379h6.5v8.4h-6.5V379z M173.4,421.1h6.5v8.4h-6.5V421.1z M520.1,421.1
	h6.5v8.4h-6.5V421.1z M173.4,463.2h6.5v8.4h-6.5V463.2z M520.1,463.2h6.5v8.4h-6.5V463.2z M173.4,505.3h6.5v8.4h-6.5V505.3
	L173.4,505.3z M520.1,505.3h6.5v8.4h-6.5V505.3L520.1,505.3z M208.1,0h6.5v8.4h-6.5V0z M554.8,0h6.5v8.4h-6.5V0z M208.1,42.1h6.5
	v8.4h-6.5V42.1z M554.8,42.1h6.5v8.4h-6.5V42.1z M208.1,84.2h6.5v8.4h-6.5V84.2z M554.8,84.2h6.5v8.4h-6.5V84.2z M208.1,126.3h6.5
	v8.4h-6.5C208.1,134.7,208.1,126.3,208.1,126.3z M554.8,126.3h6.5v8.4h-6.5C554.8,134.7,554.8,126.3,554.8,126.3z M208,168.4h6.5
	v8.4H208V168.4z M554.8,168.4h6.5v8.4h-6.5V168.4z M208,210.6h6.5v8.4H208V210.6z M554.8,210.6h6.5v8.4h-6.5V210.6z M208,252.7h6.5
	v8.4H208V252.7L208,252.7z M554.8,252.7h6.5v8.4h-6.5V252.7L554.8,252.7z M208,294.8h6.5v8.4H208V294.8z M554.8,294.8h6.5v8.4h-6.5
	V294.8z M208,336.9h6.5v8.4H208V336.9z M554.8,336.9h6.5v8.4h-6.5V336.9z M208,379h6.5v8.4H208V379z M554.8,379h6.5v8.4h-6.5V379z
	 M208,421.1h6.5v8.4H208V421.1z M554.8,421.1h6.5v8.4h-6.5V421.1z M208,463.2h6.5v8.4H208V463.2z M554.8,463.2h6.5v8.4h-6.5V463.2z
	 M208,505.3h6.5v8.4H208V505.3L208,505.3z M554.8,505.3h6.5v8.4h-6.5V505.3L554.8,505.3z M242.7,0h6.5v8.4h-6.5V0z M589.5,0h6.5v8.4
	h-6.5V0z M242.7,42.1h6.5v8.4h-6.5V42.1z M589.5,42.1h6.5v8.4h-6.5V42.1z M242.7,84.2h6.5v8.4h-6.5V84.2z M589.5,84.2h6.5v8.4h-6.5
	V84.2z M242.7,126.3h6.5v8.4h-6.5C242.7,134.7,242.7,126.3,242.7,126.3z M589.5,126.3h6.5v8.4h-6.5
	C589.5,134.7,589.5,126.3,589.5,126.3z M242.7,168.4h6.5v8.4h-6.5V168.4z M589.5,168.4h6.5v8.4h-6.5V168.4z M242.7,210.6h6.5v8.4
	h-6.5V210.6z M589.5,210.6h6.5v8.4h-6.5V210.6z M242.7,252.7h6.5v8.4h-6.5V252.7L242.7,252.7z M589.5,252.7h6.5v8.4h-6.5V252.7
	L589.5,252.7z M242.7,294.8h6.5v8.4h-6.5V294.8z M589.5,294.8h6.5v8.4h-6.5V294.8z M242.7,336.9h6.5v8.4h-6.5V336.9z M589.5,336.9
	h6.5v8.4h-6.5V336.9z M242.7,379h6.5v8.4h-6.5V379z M589.5,379h6.5v8.4h-6.5V379z M242.7,421.1h6.5v8.4h-6.5V421.1z M589.5,421.1
	h6.5v8.4h-6.5V421.1z M242.7,463.2h6.5v8.4h-6.5V463.2z M589.5,463.2h6.5v8.4h-6.5V463.2z M242.7,505.3h6.5v8.4h-6.5V505.3
	L242.7,505.3z M589.5,505.3h6.5v8.4h-6.5V505.3L589.5,505.3z M277.4,0h6.5v8.4h-6.5V0z M624.1,0h6.5v8.4h-6.5V0z M277.4,42.1h6.5
	v8.4h-6.5V42.1z M624.2,42.1h6.5v8.4h-6.5L624.2,42.1L624.2,42.1z M277.4,84.2h6.5v8.4h-6.5V84.2z M624.2,84.2h6.5v8.4h-6.5
	L624.2,84.2L624.2,84.2L624.2,84.2z M277.4,126.3h6.5v8.4h-6.5C277.4,134.7,277.4,126.3,277.4,126.3z M624.2,126.3h6.5v8.4h-6.5
	C624.2,134.7,624.2,126.3,624.2,126.3z M277.4,168.4h6.5v8.4h-6.5V168.4z M624.2,168.4h6.5v8.4h-6.5L624.2,168.4L624.2,168.4z
	 M277.4,210.6h6.5v8.4h-6.5V210.6z M624.2,210.6h6.5v8.4h-6.5L624.2,210.6L624.2,210.6z M277.4,252.7h6.5v8.4h-6.5V252.7
	L277.4,252.7z M624.2,252.7h6.5v8.4h-6.5L624.2,252.7L624.2,252.7z M277.4,294.8h6.5v8.4h-6.5V294.8z M624.2,294.8h6.5v8.4h-6.5
	L624.2,294.8L624.2,294.8z M277.5,336.9h6.5v8.4h-6.5V336.9z M624.2,336.9h6.5v8.4h-6.5L624.2,336.9L624.2,336.9z M277.5,379h6.5
	v8.4h-6.5V379z M624.2,379h6.5v8.4h-6.5L624.2,379L624.2,379z M277.5,421.1h6.5v8.4h-6.5V421.1z M624.2,421.1h6.5v8.4h-6.5
	L624.2,421.1L624.2,421.1z M277.5,463.2h6.5v8.4h-6.5V463.2z M624.2,463.2h6.5v8.4h-6.5L624.2,463.2L624.2,463.2z M277.5,505.3h6.5
	v8.4h-6.5V505.3L277.5,505.3z M624.2,505.3h6.5v8.4h-6.5L624.2,505.3L624.2,505.3z M312.1,0h6.5v8.4h-6.5V0z M658.8,0h6.5v8.4h-6.5
	V0z M312.1,42.1h6.5v8.4h-6.5V42.1z M658.8,42.1h6.5v8.4h-6.5L658.8,42.1L658.8,42.1z M312.1,84.2h6.5v8.4h-6.5V84.2z M658.8,84.2
	h6.5v8.4h-6.5L658.8,84.2L658.8,84.2z M312.1,126.3h6.5v8.4h-6.5C312.1,134.7,312.1,126.3,312.1,126.3z M658.8,126.3h6.5v8.4h-6.5
	C658.8,134.7,658.8,126.3,658.8,126.3z M312.1,168.4h6.5v8.4h-6.5V168.4z M658.8,168.4h6.5v8.4h-6.5L658.8,168.4L658.8,168.4z
	 M312,210.6h6.5v8.4H312V210.6z M658.8,210.6h6.5v8.4h-6.5L658.8,210.6L658.8,210.6z M312,252.7h6.5v8.4H312V252.7L312,252.7z
	 M658.8,252.7h6.5v8.4h-6.5L658.8,252.7L658.8,252.7z M312,294.8h6.5v8.4H312V294.8z M658.8,294.8h6.5v8.4h-6.5L658.8,294.8
	L658.8,294.8z M312,336.9h6.5v8.4H312V336.9z M658.8,336.9h6.5v8.4h-6.5L658.8,336.9L658.8,336.9z M312,379h6.5v8.4H312V379z
	 M658.8,379h6.5v8.4h-6.5L658.8,379L658.8,379z M312,421.1h6.5v8.4H312V421.1z M658.7,421.1h6.5v8.4h-6.5L658.7,421.1L658.7,421.1z
	 M312,463.2h6.5v8.4H312V463.2z M658.7,463.2h6.5v8.4h-6.5L658.7,463.2L658.7,463.2z M312,505.3h6.5v8.4H312V505.3L312,505.3z
	 M658.7,505.3h6.5v8.4h-6.5L658.7,505.3L658.7,505.3z M689.6,0h6.6v8.4h-6.6V0z M1042.1,0h6.6v8.4h-6.6V0z M689.6,42.1h6.6v8.4h-6.6
	V42.1z M1042.1,42.1h6.6v8.4h-6.6V42.1z M689.6,84.2h6.6v8.4h-6.6V84.2z M1042.1,84.2h6.6v8.4h-6.6V84.2z M689.6,126.3h6.6v8.4h-6.6
	C689.6,134.7,689.6,126.3,689.6,126.3z M1042.1,126.3h6.6v8.4h-6.6C1042.1,134.7,1042.1,126.3,1042.1,126.3z M689.6,168.4h6.6v8.4
	h-6.6V168.4z M1042.1,168.4h6.6v8.4h-6.6V168.4z M689.6,210.6h6.6v8.4h-6.6V210.6z M1042.1,210.6h6.6v8.4h-6.6V210.6z M689.6,252.7
	h6.6v8.4h-6.6V252.7L689.6,252.7z M1042.1,252.7h6.6v8.4h-6.6V252.7L1042.1,252.7z M689.6,294.8h6.6v8.4h-6.6V294.8z M1042.1,294.8
	h6.6v8.4h-6.6V294.8z M689.6,336.9h6.6v8.4h-6.6V336.9z M1042.1,336.9h6.6v8.4h-6.6V336.9z M689.6,379h6.6v8.4h-6.6V379z
	 M1042.1,379h6.6v8.4h-6.6V379z M689.6,421.1h6.6v8.4h-6.6V421.1z M1042.1,421.1h6.6v8.4h-6.6V421.1z M689.6,463.2h6.6v8.4h-6.6
	V463.2z M1042.1,463.2h6.6v8.4h-6.6V463.2z M689.6,505.3h6.6v8.4h-6.6V505.3L689.6,505.3z M1042.1,505.3h6.6v8.4h-6.6V505.3
	L1042.1,505.3z M724.8,0h6.6v8.4h-6.6V0z M1077.4,0h6.6v8.4h-6.6V0z M724.8,42.1h6.6v8.4h-6.6V42.1z M1077.4,42.1h6.6v8.4h-6.6V42.1
	z M724.8,84.2h6.6v8.4h-6.6V84.2L724.8,84.2z M1077.4,84.2h6.6v8.4h-6.6V84.2z M724.8,126.3h6.6v8.4h-6.6
	C724.8,134.7,724.8,126.3,724.8,126.3z M1077.4,126.3h6.6v8.4h-6.6C1077.4,134.7,1077.4,126.3,1077.4,126.3z M724.8,168.4h6.6v8.4
	h-6.6V168.4z M1077.4,168.4h6.6v8.4h-6.6V168.4z M724.8,210.6h6.6v8.4h-6.6V210.6z M1077.4,210.6h6.6v8.4h-6.6V210.6z M724.9,252.7
	h6.6v8.4h-6.6V252.7L724.9,252.7z M1077.4,252.7h6.6v8.4h-6.6V252.7L1077.4,252.7z M724.9,294.8h6.6v8.4h-6.6V294.8z M1077.4,294.8
	h6.6v8.4h-6.6V294.8z M724.9,336.9h6.6v8.4h-6.6V336.9z M1077.4,336.9h6.6v8.4h-6.6V336.9z M724.9,379h6.6v8.4h-6.6V379z
	 M1077.4,379h6.6v8.4h-6.6V379z M724.9,421.1h6.6v8.4h-6.6V421.1z M1077.4,421.1h6.6v8.4h-6.6V421.1z M724.9,463.2h6.6v8.4h-6.6
	V463.2z M1077.5,463.2h6.6v8.4h-6.6V463.2z M724.9,505.3h6.6v8.4h-6.6V505.3L724.9,505.3z M1077.5,505.3h6.6v8.4h-6.6V505.3
	L1077.5,505.3z M760.1,0h6.6v8.4h-6.6V0z M1112.6,0h6.6v8.4h-6.6V0z M760.1,42.1h6.6v8.4h-6.6V42.1z M1112.6,42.1h6.6v8.4h-6.6V42.1
	z M760.1,84.2h6.6v8.4h-6.6V84.2z M1112.6,84.2h6.6v8.4h-6.6V84.2L1112.6,84.2z M760.1,126.3h6.6v8.4h-6.6
	C760.1,134.7,760.1,126.3,760.1,126.3z M1112.6,126.3h6.6v8.4h-6.6C1112.6,134.7,1112.6,126.3,1112.6,126.3z M760.1,168.4h6.6v8.4
	h-6.6V168.4z M1112.6,168.4h6.6v8.4h-6.6V168.4z M760,210.6h6.6v8.4H760V210.6z M1112.6,210.6h6.6v8.4h-6.6V210.6z M760,252.7h6.6
	v8.4H760V252.7L760,252.7z M1112.6,252.7h6.6v8.4h-6.6V252.7L1112.6,252.7z M760,294.8h6.6v8.4H760V294.8z M1112.6,294.8h6.6v8.4
	h-6.6V294.8z M760,336.9h6.6v8.4H760V336.9z M1112.6,336.9h6.6v8.4h-6.6V336.9z M760,379h6.6v8.4H760V379z M1112.5,379h6.6v8.4h-6.6
	V379z M760,421.1h6.6v8.4H760V421.1z M1112.5,421.1h6.6v8.4h-6.6V421.1z M760,463.2h6.6v8.4H760V463.2z M1112.5,463.2h6.6v8.4h-6.6
	V463.2z M760,505.3h6.6v8.4H760V505.3L760,505.3z M1112.5,505.3h6.6v8.4h-6.6V505.3L1112.5,505.3z M795.3,0h6.6v8.4h-6.6V0z
	 M1147.9,0h6.6v8.4h-6.6V0z M795.3,42.1h6.6v8.4h-6.6V42.1z M1147.9,42.1h6.6v8.4h-6.6V42.1z M795.3,84.2h6.6v8.4h-6.6V84.2z
	 M1147.9,84.2h6.6v8.4h-6.6V84.2z M795.3,126.3h6.6v8.4h-6.6C795.3,134.7,795.3,126.3,795.3,126.3z M1147.9,126.3h6.6v8.4h-6.6
	C1147.9,134.7,1147.9,126.3,1147.9,126.3z M795.3,168.4h6.6v8.4h-6.6V168.4z M1147.9,168.4h6.6v8.4h-6.6V168.4z M795.3,210.6h6.6
	v8.4h-6.6V210.6z M1147.9,210.6h6.6v8.4h-6.6V210.6z M795.3,252.7h6.6v8.4h-6.6V252.7L795.3,252.7z M1147.9,252.7h6.6v8.4h-6.6
	V252.7L1147.9,252.7z M795.3,294.8h6.6v8.4h-6.6V294.8z M1147.9,294.8h6.6v8.4h-6.6V294.8z M795.3,336.9h6.6v8.4h-6.6V336.9z
	 M1147.9,336.9h6.6v8.4h-6.6V336.9z M795.3,379h6.6v8.4h-6.6V379z M1147.9,379h6.6v8.4h-6.6V379z M795.3,421.1h6.6v8.4h-6.6V421.1z
	 M1147.9,421.1h6.6v8.4h-6.6V421.1z M795.3,463.2h6.6v8.4h-6.6V463.2z M1147.9,463.2h6.6v8.4h-6.6V463.2z M795.3,505.3h6.6v8.4h-6.6
	V505.3L795.3,505.3z M1147.9,505.3h6.6v8.4h-6.6V505.3L1147.9,505.3z M830.6,0h6.6v8.4h-6.6V0z M1183.1,0h6.6v8.4h-6.6L1183.1,0
	L1183.1,0z M830.6,42.1h6.6v8.4h-6.6V42.1z M1183.1,42.1h6.6v8.4h-6.6V42.1z M830.6,84.2h6.6v8.4h-6.6V84.2z M1183.1,84.2h6.6v8.4
	h-6.6V84.2z M830.6,126.3h6.6v8.4h-6.6C830.6,134.7,830.6,126.3,830.6,126.3z M1183.1,126.3h6.6v8.4h-6.6
	C1183.1,134.7,1183.1,126.3,1183.1,126.3z M830.6,168.4h6.6v8.4h-6.6V168.4z M1183.1,168.4h6.6v8.4h-6.6V168.4z M830.6,210.6h6.6
	v8.4h-6.6V210.6z M1183.1,210.6h6.6v8.4h-6.6V210.6z M830.6,252.7h6.6v8.4h-6.6V252.7L830.6,252.7z M1183.1,252.7h6.6v8.4h-6.6
	V252.7L1183.1,252.7z M830.6,294.8h6.6v8.4h-6.6V294.8z M1183.1,294.8h6.6v8.4h-6.6V294.8z M830.6,336.9h6.6v8.4h-6.6V336.9z
	 M1183.1,336.9h6.6v8.4h-6.6V336.9z M830.6,379h6.6v8.4h-6.6V379z M1183.1,379h6.6v8.4h-6.6V379z M830.6,421.1h6.6v8.4h-6.6V421.1z
	 M1183.1,421.1h6.6v8.4h-6.6V421.1z M830.6,463.2h6.6v8.4h-6.6V463.2z M1183.1,463.2h6.6v8.4h-6.6V463.2z M830.6,505.3h6.6v8.4h-6.6
	V505.3L830.6,505.3z M1183.1,505.3h6.6v8.4h-6.6V505.3L1183.1,505.3z M865.8,0h6.6v8.4h-6.6V0z M1218.4,0h6.6v8.4h-6.6V0z
	 M865.8,42.1h6.6v8.4h-6.6V42.1z M1218.4,42.1h6.6v8.4h-6.6V42.1z M865.8,84.2h6.6v8.4h-6.6V84.2z M1218.4,84.2h6.6v8.4h-6.6V84.2z
	 M865.8,126.3h6.6v8.4h-6.6C865.8,134.7,865.8,126.3,865.8,126.3z M1218.4,126.3h6.6v8.4h-6.6
	C1218.4,134.7,1218.4,126.3,1218.4,126.3z M865.8,168.4h6.6v8.4h-6.6V168.4z M1218.4,168.4h6.6v8.4h-6.6V168.4z M865.8,210.6h6.6
	v8.4h-6.6V210.6z M1218.4,210.6h6.6v8.4h-6.6V210.6z M865.8,252.7h6.6v8.4h-6.6V252.7L865.8,252.7z M1218.4,252.7h6.6v8.4h-6.6
	V252.7L1218.4,252.7z M865.8,294.8h6.6v8.4h-6.6V294.8z M1218.4,294.8h6.6v8.4h-6.6V294.8z M865.8,336.9h6.6v8.4h-6.6V336.9z
	 M1218.4,336.9h6.6v8.4h-6.6V336.9z M865.8,379h6.6v8.4h-6.6V379z M1218.4,379h6.6v8.4h-6.6V379z M865.8,421.1h6.6v8.4h-6.6V421.1z
	 M1218.4,421.1h6.6v8.4h-6.6V421.1z M865.8,463.2h6.6v8.4h-6.6V463.2z M1218.4,463.2h6.6v8.4h-6.6V463.2z M865.8,505.3h6.6v8.4h-6.6
	V505.3L865.8,505.3z M1218.4,505.3h6.6v8.4h-6.6V505.3L1218.4,505.3z M901.1,0h6.6v8.4h-6.6V0z M1253.6,0h6.6v8.4h-6.6V0z
	 M901.1,42.1h6.6v8.4h-6.6V42.1z M1253.6,42.1h6.6v8.4h-6.6V42.1z M901.1,84.2h6.6v8.4h-6.6V84.2z M1253.6,84.2h6.6v8.4h-6.6V84.2z
	 M901.1,126.3h6.6v8.4h-6.6C901.1,134.7,901.1,126.3,901.1,126.3z M1253.6,126.3h6.6v8.4h-6.6
	C1253.6,134.7,1253.6,126.3,1253.6,126.3z M901.1,168.4h6.6v8.4h-6.6V168.4z M1253.6,168.4h6.6v8.4h-6.6V168.4z M901.1,210.6h6.6
	v8.4h-6.6V210.6z M1253.6,210.6h6.6v8.4h-6.6V210.6z M901.1,252.7h6.6v8.4h-6.6V252.7L901.1,252.7z M1253.6,252.7h6.6v8.4h-6.6
	V252.7L1253.6,252.7z M901.1,294.8h6.6v8.4h-6.6V294.8z M1253.6,294.8h6.6v8.4h-6.6V294.8z M901.1,336.9h6.6v8.4h-6.6V336.9z
	 M1253.6,336.9h6.6v8.4h-6.6V336.9z M901.1,379h6.6v8.4h-6.6V379z M1253.6,379h6.6v8.4h-6.6V379z M901.1,421.1h6.6v8.4h-6.6V421.1z
	 M1253.6,421.1h6.6v8.4h-6.6V421.1z M901.1,463.2h6.6v8.4h-6.6V463.2z M1253.6,463.2h6.6v8.4h-6.6V463.2z M901.1,505.3h6.6v8.4h-6.6
	V505.3L901.1,505.3z M1253.6,505.3h6.6v8.4h-6.6V505.3L1253.6,505.3z M936.3,0h6.6v8.4h-6.6V0z M1288.9,0h6.6v8.4h-6.6V0z
	 M936.3,42.1h6.6v8.4h-6.6V42.1z M1288.9,42.1h6.6v8.4h-6.6V42.1z M936.3,84.2h6.6v8.4h-6.6V84.2z M1288.9,84.2h6.6v8.4h-6.6V84.2z
	 M936.3,126.3h6.6v8.4h-6.6C936.3,134.7,936.3,126.3,936.3,126.3z M1288.9,126.3h6.6v8.4h-6.6
	C1288.9,134.7,1288.9,126.3,1288.9,126.3z M936.3,168.4h6.6v8.4h-6.6V168.4z M1288.9,168.4h6.6v8.4h-6.6V168.4z M936.3,210.6h6.6
	v8.4h-6.6V210.6z M1288.9,210.6h6.6v8.4h-6.6V210.6z M936.3,252.7h6.6v8.4h-6.6V252.7L936.3,252.7z M1288.9,252.7h6.6v8.4h-6.6
	V252.7L1288.9,252.7z M936.3,294.8h6.6v8.4h-6.6V294.8z M1288.9,294.8h6.6v8.4h-6.6V294.8z M936.3,336.9h6.6v8.4h-6.6V336.9z
	 M1288.9,336.9h6.6v8.4h-6.6V336.9z M936.3,379h6.6v8.4h-6.6V379z M1288.9,379h6.6v8.4h-6.6V379z M936.3,421.1h6.6v8.4h-6.6V421.1z
	 M1288.9,421.1h6.6v8.4h-6.6V421.1z M936.3,463.2h6.6v8.4h-6.6V463.2z M1288.9,463.2h6.6v8.4h-6.6V463.2z M936.3,505.3h6.6v8.4h-6.6
	V505.3L936.3,505.3z M1288.9,505.3h6.6v8.4h-6.6V505.3L1288.9,505.3z M971.6,0h6.6v8.4h-6.6V0z M1324.1,0h6.6v8.4h-6.6V0z
	 M971.6,42.1h6.6v8.4h-6.6V42.1z M1324.1,42.1h6.6v8.4h-6.6V42.1z M971.6,84.2h6.6v8.4h-6.6V84.2z M1324.1,84.2h6.6v8.4h-6.6V84.2z
	 M971.6,126.3h6.6v8.4h-6.6C971.6,134.7,971.6,126.3,971.6,126.3z M1324.1,126.3h6.6v8.4h-6.6
	C1324.1,134.7,1324.1,126.3,1324.1,126.3z M971.6,168.4h6.6v8.4h-6.6V168.4z M1324.1,168.4h6.6v8.4h-6.6V168.4z M971.6,210.6h6.6
	v8.4h-6.6V210.6z M1324.1,210.6h6.6v8.4h-6.6V210.6z M971.6,252.7h6.6v8.4h-6.6V252.7L971.6,252.7z M1324.1,252.7h6.6v8.4h-6.6
	V252.7L1324.1,252.7z M971.6,294.8h6.6v8.4h-6.6V294.8z M1324.1,294.8h6.6v8.4h-6.6V294.8z M971.6,336.9h6.6v8.4h-6.6V336.9z
	 M1324.1,336.9h6.6v8.4h-6.6V336.9z M971.6,379h6.6v8.4h-6.6V379z M1324.1,379h6.6v8.4h-6.6V379z M971.6,421.1h6.6v8.4h-6.6V421.1z
	 M1324.1,421.1h6.6v8.4h-6.6V421.1z M971.6,463.2h6.6v8.4h-6.6V463.2z M1324.1,463.2h6.6v8.4h-6.6V463.2z M971.6,505.3h6.6v8.4h-6.6
	V505.3L971.6,505.3z M1324.1,505.3h6.6v8.4h-6.6V505.3L1324.1,505.3z M1006.8,0h6.6v8.4h-6.6V0z M1359.4,0h6.6v8.4h-6.6V0z
	 M1006.8,42.1h6.6v8.4h-6.6V42.1z M1359.4,42.1h6.6v8.4h-6.6V42.1z M1006.8,84.2h6.6v8.4h-6.6V84.2z M1359.4,84.2h6.6v8.4h-6.6V84.2
	z M1006.8,126.3h6.6v8.4h-6.6C1006.8,134.7,1006.8,126.3,1006.8,126.3z M1359.4,126.3h6.6v8.4h-6.6
	C1359.4,134.7,1359.4,126.3,1359.4,126.3z M1006.8,168.4h6.6v8.4h-6.6V168.4z M1359.4,168.4h6.6v8.4h-6.6V168.4z M1006.8,210.6h6.6
	v8.4h-6.6V210.6z M1359.4,210.6h6.6v8.4h-6.6V210.6z M1006.8,252.7h6.6v8.4h-6.6V252.7L1006.8,252.7z M1359.4,252.7h6.6v8.4h-6.6
	V252.7L1359.4,252.7z M1006.8,294.8h6.6v8.4h-6.6V294.8z M1359.4,294.8h6.6v8.4h-6.6V294.8z M1006.8,336.9h6.6v8.4h-6.6V336.9z
	 M1359.4,336.9h6.6v8.4h-6.6V336.9z M1006.8,379h6.6v8.4h-6.6V379z M1359.4,379h6.6v8.4h-6.6V379z M1006.8,421.1h6.6v8.4h-6.6V421.1
	z M1359.4,421.1h6.6v8.4h-6.6V421.1z M1006.8,463.2h6.6v8.4h-6.6V463.2z M1359.4,463.2h6.6v8.4h-6.6V463.2z M1006.8,505.3h6.6v8.4
	h-6.6V505.3L1006.8,505.3z M1359.4,505.3h6.6v8.4h-6.6V505.3L1359.4,505.3z"/>
</svg>
