<?xml version="1.0" encoding="UTF-8"?><svg id="a" xmlns="http://www.w3.org/2000/svg" viewBox="0 0 1366 513.74"><defs><style>.c{fill:#5597d1;}</style></defs><path id="b" class="c" d="M0,0H6.5V8.42H0V0ZM346.75,0h6.5V8.42h-6.5V0ZM0,42.11H6.5v8.42H0v-8.42Zm346.75,0h6.5v8.42h-6.5v-8.42ZM0,84.22H6.5v8.42H0v-8.42Zm346.75,0h6.5v8.42h-6.5v-8.42ZM0,126.32H6.5v8.42H0v-8.42Zm346.75,0h6.5v8.42h-6.5v-8.42ZM0,168.44H6.5v8.42H0v-8.42Zm346.75,0h6.5v8.42h-6.5v-8.42ZM0,210.55H6.5v8.42H0v-8.42Zm346.75,0h6.5v8.42h-6.5v-8.42ZM0,252.66H6.5v8.42H0v-8.42Zm346.75,0h6.5v8.42h-6.5v-8.42ZM0,294.77H6.5v8.42H0v-8.42Zm346.75,0h6.5v8.42h-6.5v-8.42ZM0,336.88H6.5v8.42H0v-8.42Zm346.75,0h6.5v8.42h-6.5v-8.42ZM0,378.99H6.5v8.42H0v-8.42Zm346.75,0h6.5v8.42h-6.5v-8.42ZM0,421.1H6.5v8.42H0v-8.42Zm346.75,0h6.5v8.42h-6.5v-8.42ZM0,463.21H6.5v8.42H0v-8.42Zm346.75,0h6.5v8.42h-6.5v-8.42ZM0,505.32H6.5v8.42H0v-8.42Zm346.75,0h6.5v8.42h-6.5v-8.42ZM34.68,0h6.5V8.42h-6.5V0ZM381.42,0h6.5V8.42h-6.5V0ZM34.67,42.11h6.5v8.42h-6.5v-8.42h0Zm346.75,0h6.5v8.42h-6.5v-8.42ZM34.67,84.22h6.5v8.42h-6.5v-8.42h0Zm346.75,0h6.5v8.42h-6.5v-8.42ZM34.67,126.32h6.5v8.42h-6.5v-8.42h0Zm346.75,0h6.5v8.42h-6.5v-8.42ZM34.67,168.44h6.5v8.42h-6.5v-8.42h0Zm346.75,0h6.5v8.42h-6.5v-8.42ZM34.67,210.55h6.5v8.42h-6.5v-8.42h0Zm346.75,0h6.5v8.42h-6.5v-8.42ZM34.67,252.66h6.5v8.42h-6.5v-8.42h0Zm346.75,0h6.5v8.42h-6.5v-8.42ZM34.67,294.77h6.5v8.42h-6.5v-8.42h0Zm346.75,0h6.5v8.42h-6.5v-8.42ZM34.67,336.88h6.5v8.42h-6.5v-8.42h0Zm346.75,0h6.5v8.42h-6.5v-8.42ZM34.67,378.99h6.5v8.42h-6.5v-8.42h0Zm346.75,0h6.5v8.42h-6.5v-8.42ZM34.67,421.1h6.5v8.42h-6.5v-8.42h0Zm346.75,0h6.5v8.42h-6.5v-8.42ZM34.67,463.21h6.5v8.42h-6.5v-8.42h0Zm346.75,0h6.5v8.42h-6.5v-8.42ZM34.67,505.32h6.5v8.42h-6.5v-8.42h0Zm346.75,0h6.5v8.42h-6.5v-8.42ZM69.35,0h6.5V8.42h-6.5V0ZM416.1,0h6.5V8.42h-6.5V0ZM69.35,42.11h6.5v8.42h-6.5v-8.42Zm346.75,0h6.5v8.42h-6.5v-8.42ZM69.35,84.22h6.5v8.42h-6.5v-8.42Zm346.75,0h6.5v8.42h-6.5v-8.42ZM69.35,126.32h6.5v8.42h-6.5v-8.42Zm346.75,0h6.5v8.42h-6.5v-8.42ZM69.35,168.44h6.5v8.42h-6.5v-8.42Zm346.75,0h6.5v8.42h-6.5v-8.42ZM69.35,210.55h6.5v8.42h-6.5v-8.42Zm346.75,0h6.5v8.42h-6.5v-8.42ZM69.35,252.66h6.5v8.42h-6.5v-8.42Zm346.75,0h6.5v8.42h-6.5v-8.42Zm-346.75,42.11h6.5v8.42h-6.5v-8.42Zm346.75,0h6.5v8.42h-6.5v-8.42Zm-346.75,42.11h6.5v8.42h-6.5v-8.42Zm346.75,0h6.5v8.42h-6.5v-8.42Zm-346.75,42.11h6.5v8.42h-6.5v-8.42Zm346.75,0h6.5v8.42h-6.5v-8.42Zm-346.75,42.11h6.5v8.42h-6.5v-8.42Zm346.75,0h6.5v8.42h-6.5v-8.42Zm-346.75,42.11h6.5v8.42h-6.5v-8.42Zm346.75,0h6.5v8.42h-6.5v-8.42Zm-346.75,42.11h6.5v8.42h-6.5v-8.42Zm346.75,0h6.5v8.42h-6.5v-8.42ZM104.03,0h6.5V8.42h-6.5V0ZM450.77,0h6.5V8.42h-6.5V0ZM104.02,42.11h6.5v8.42h-6.5v-8.42Zm346.75,0h6.5v8.42h-6.5v-8.42ZM104.02,84.22h6.5v8.42h-6.5v-8.42Zm346.75,0h6.5v8.42h-6.5v-8.42ZM104.02,126.32h6.5v8.42h-6.5v-8.42Zm346.75,0h6.5v8.42h-6.5v-8.42ZM104.02,168.44h6.5v8.42h-6.5v-8.42Zm346.75,0h6.5v8.42h-6.5v-8.42ZM104.02,210.55h6.5v8.42h-6.5v-8.42Zm346.75,0h6.5v8.42h-6.5v-8.42ZM104.02,252.66h6.5v8.42h-6.5v-8.42Zm346.75,0h6.5v8.42h-6.5v-8.42Zm-346.75,42.11h6.5v8.42h-6.5v-8.42Zm346.75,0h6.5v8.42h-6.5v-8.42Zm-346.75,42.11h6.5v8.42h-6.5v-8.42Zm346.75,0h6.5v8.42h-6.5v-8.42Zm-346.75,42.11h6.5v8.42h-6.5v-8.42Zm346.75,0h6.5v8.42h-6.5v-8.42Zm-346.75,42.11h6.5v8.42h-6.5v-8.42Zm346.75,0h6.5v8.42h-6.5v-8.42Zm-346.75,42.11h6.5v8.42h-6.5v-8.42Zm346.75,0h6.5v8.42h-6.5v-8.42Zm-346.75,42.11h6.5v8.42h-6.5v-8.42Zm346.75,0h6.5v8.42h-6.5v-8.42ZM138.7,0h6.5V8.42h-6.5V0ZM485.45,0h6.5V8.42h-6.5V0ZM138.7,42.11h6.5v8.42h-6.5v-8.42Zm346.75,0h6.5v8.42h-6.5v-8.42ZM138.7,84.22h6.5v8.42h-6.5v-8.42Zm346.75,0h6.5v8.42h-6.5v-8.42h0ZM138.7,126.32h6.5v8.42h-6.5v-8.42Zm346.75,0h6.5v8.42h-6.5v-8.42Zm-346.74,42.12h6.5v8.42h-6.5v-8.42Zm346.75,0h6.5v8.42h-6.5v-8.42Zm-346.74,42.11h6.5v8.42h-6.5v-8.42Zm346.75,0h6.5v8.42h-6.5v-8.42Zm-346.74,42.11h6.5v8.42h-6.5v-8.42Zm346.75,0h6.5v8.42h-6.5v-8.42Zm-346.74,42.11h6.5v8.42h-6.5v-8.42Zm346.75,0h6.5v8.42h-6.5v-8.42Zm-346.74,42.11h6.5v8.42h-6.5v-8.42Zm346.75,0h6.5v8.42h-6.5v-8.42Zm-346.74,42.11h6.5v8.42h-6.5v-8.42Zm346.75,0h6.5v8.42h-6.5v-8.42Zm-346.74,42.11h6.5v8.42h-6.5v-8.42Zm346.75,0h6.5v8.42h-6.5v-8.42Zm-346.74,42.11h6.5v8.42h-6.5v-8.42Zm346.75,0h6.5v8.42h-6.5v-8.42Zm-346.74,42.11h6.5v8.42h-6.5v-8.42Zm346.75,0h6.5v8.42h-6.5v-8.42ZM173.37,0h6.5V8.42h-6.5V0Zm346.75,0h6.5V8.42h-6.5V0ZM173.37,42.11h6.5v8.42h-6.5v-8.42Zm346.75,0h6.5v8.42h-6.5v-8.42ZM173.37,84.22h6.5v8.42h-6.5v-8.42Zm346.75,0h6.5v8.42h-6.5v-8.42ZM173.37,126.32h6.5v8.42h-6.5v-8.42Zm346.75,0h6.5v8.42h-6.5v-8.42Zm-346.75,42.12h6.5v8.42h-6.5v-8.42Zm346.75,0h6.5v8.42h-6.5v-8.42Zm-346.75,42.11h6.5v8.42h-6.5v-8.42Zm346.75,0h6.5v8.42h-6.5v-8.42Zm-346.75,42.11h6.5v8.42h-6.5v-8.42Zm346.75,0h6.5v8.42h-6.5v-8.42Zm-346.75,42.11h6.5v8.42h-6.5v-8.42Zm346.75,0h6.5v8.42h-6.5v-8.42Zm-346.75,42.11h6.5v8.42h-6.5v-8.42Zm346.75,0h6.5v8.42h-6.5v-8.42Zm-346.75,42.11h6.5v8.42h-6.5v-8.42Zm346.75,0h6.5v8.42h-6.5v-8.42Zm-346.75,42.11h6.5v8.42h-6.5v-8.42Zm346.75,0h6.5v8.42h-6.5v-8.42Zm-346.75,42.11h6.5v8.42h-6.5v-8.42Zm346.75,0h6.5v8.42h-6.5v-8.42Zm-346.75,42.11h6.5v8.42h-6.5v-8.42Zm346.75,0h6.5v8.42h-6.5v-8.42ZM208.05,0h6.5V8.42h-6.5V0Zm346.75,0h6.5V8.42h-6.5V0ZM208.05,42.11h6.5v8.42h-6.5v-8.42Zm346.75,0h6.5v8.42h-6.5v-8.42ZM208.05,84.22h6.5v8.42h-6.5v-8.42Zm346.75,0h6.5v8.42h-6.5v-8.42ZM208.05,126.32h6.5v8.42h-6.5v-8.42Zm346.75,0h6.5v8.42h-6.5v-8.42Zm-346.75,42.12h6.5v8.42h-6.5v-8.42Zm346.75,0h6.5v8.42h-6.5v-8.42Zm-346.75,42.11h6.5v8.42h-6.5v-8.42Zm346.75,0h6.5v8.42h-6.5v-8.42Zm-346.75,42.11h6.5v8.42h-6.5v-8.42Zm346.75,0h6.5v8.42h-6.5v-8.42Zm-346.75,42.11h6.5v8.42h-6.5v-8.42Zm346.75,0h6.5v8.42h-6.5v-8.42Zm-346.75,42.11h6.5v8.42h-6.5v-8.42Zm346.75,0h6.5v8.42h-6.5v-8.42Zm-346.75,42.11h6.5v8.42h-6.5v-8.42Zm346.75,0h6.5v8.42h-6.5v-8.42Zm-346.75,42.11h6.5v8.42h-6.5v-8.42Zm346.75,0h6.5v8.42h-6.5v-8.42Zm-346.75,42.11h6.5v8.42h-6.5v-8.42Zm346.75,0h6.5v8.42h-6.5v-8.42Zm-346.75,42.11h6.5v8.42h-6.5v-8.42Zm346.75,0h6.5v8.42h-6.5v-8.42ZM242.72,0h6.5V8.42h-6.5V0Zm346.75,0h6.5V8.42h-6.5V0ZM242.72,42.11h6.5v8.42h-6.5v-8.42Zm346.75,0h6.5v8.42h-6.5v-8.42ZM242.72,84.22h6.5v8.42h-6.5v-8.42Zm346.75,0h6.5v8.42h-6.5v-8.42ZM242.72,126.32h6.5v8.42h-6.5v-8.42Zm346.75,0h6.5v8.42h-6.5v-8.42Zm-346.75,42.12h6.5v8.42h-6.5v-8.42Zm346.75,0h6.5v8.42h-6.5v-8.42Zm-346.75,42.11h6.5v8.42h-6.5v-8.42Zm346.75,0h6.5v8.42h-6.5v-8.42Zm-346.75,42.11h6.5v8.42h-6.5v-8.42Zm346.75,0h6.5v8.42h-6.5v-8.42Zm-346.75,42.11h6.5v8.42h-6.5v-8.42Zm346.75,0h6.5v8.42h-6.5v-8.42Zm-346.75,42.11h6.5v8.42h-6.5v-8.42Zm346.75,0h6.5v8.42h-6.5v-8.42Zm-346.75,42.11h6.5v8.42h-6.5v-8.42Zm346.75,0h6.5v8.42h-6.5v-8.42Zm-346.75,42.11h6.5v8.42h-6.5v-8.42Zm346.75,0h6.5v8.42h-6.5v-8.42Zm-346.75,42.11h6.5v8.42h-6.5v-8.42Zm346.75,0h6.5v8.42h-6.5v-8.42Zm-346.75,42.11h6.5v8.42h-6.5v-8.42Zm346.75,0h6.5v8.42h-6.5v-8.42ZM277.4,0h6.5V8.42h-6.5V0Zm346.74,0h6.5V8.42h-6.5V0ZM277.4,42.11h6.5v8.42h-6.5v-8.42Zm346.75,0h6.5v8.42h-6.51v-8.42Zm-346.74,42.11h6.5v8.42h-6.5v-8.42Zm346.75,0h6.5v8.42h-6.51v-8.42h0Zm-346.75,42.1h6.5v8.42h-6.5v-8.42Zm346.74,0h6.5v8.42h-6.5v-8.42Zm-346.74,42.12h6.5v8.42h-6.5v-8.42Zm346.75,0h6.5v8.42h-6.51v-8.42Zm-346.74,42.11h6.5v8.42h-6.5v-8.42Zm346.75,0h6.5v8.42h-6.51v-8.42Zm-346.74,42.11h6.5v8.42h-6.5v-8.42Zm346.75,0h6.5v8.42h-6.51v-8.42Zm-346.74,42.11h6.5v8.42h-6.5v-8.42Zm346.75,0h6.5v8.42h-6.51v-8.42Zm-346.74,42.11h6.5v8.42h-6.5v-8.42Zm346.75,0h6.5v8.42h-6.51v-8.42Zm-346.74,42.11h6.5v8.42h-6.5v-8.42Zm346.75,0h6.5v8.42h-6.51v-8.42Zm-346.74,42.11h6.5v8.42h-6.5v-8.42Zm346.75,0h6.5v8.42h-6.51v-8.42Zm-346.74,42.11h6.5v8.42h-6.5v-8.42Zm346.75,0h6.5v8.42h-6.51v-8.42Zm-346.74,42.11h6.5v8.42h-6.5v-8.42Zm346.75,0h6.5v8.42h-6.51v-8.42ZM312.07,0h6.5V8.42h-6.5V0Zm346.76,0h6.5V8.42h-6.5V0ZM312.07,42.11h6.5v8.42h-6.5v-8.42Zm346.75,0h6.5v8.42h-6.49v-8.42Zm-346.76,42.11h6.5v8.42h-6.5v-8.42Zm346.75,0h6.5v8.42h-6.49v-8.42h-.01Zm-346.75,42.1h6.5v8.42h-6.5v-8.42Zm346.76,0h6.5v8.42h-6.5v-8.42Zm-346.76,42.12h6.5v8.42h-6.5v-8.42Zm346.75,0h6.5v8.42h-6.49v-8.42Zm-346.76,42.11h6.5v8.42h-6.5v-8.42Zm346.75,0h6.5v8.42h-6.49v-8.42Zm-346.76,42.11h6.5v8.42h-6.5v-8.42Zm346.75,0h6.5v8.42h-6.49v-8.42Zm-346.76,42.11h6.5v8.42h-6.5v-8.42Zm346.75,0h6.5v8.42h-6.49v-8.42Zm-346.76,42.11h6.5v8.42h-6.5v-8.42Zm346.75,0h6.5v8.42h-6.49v-8.42Zm-346.76,42.11h6.5v8.42h-6.5v-8.42Zm346.75,0h6.5v8.42h-6.49v-8.42Zm-346.76,42.11h6.5v8.42h-6.5v-8.42Zm346.75,0h6.5v8.42h-6.49v-8.42Zm-346.76,42.11h6.5v8.42h-6.5v-8.42Zm346.75,0h6.5v8.42h-6.49v-8.42Zm-346.76,42.11h6.5v8.42h-6.5v-8.42Zm346.75,0h6.5v8.42h-6.49v-8.42ZM689.56,0h6.61V8.42h-6.61V0Zm352.54,0h6.61V8.42h-6.61V0Zm-352.54,42.11h6.61v8.42h-6.61v-8.42Zm352.54,0h6.61v8.42h-6.61v-8.42Zm-352.54,42.11h6.61v8.42h-6.61v-8.42Zm352.54,0h6.61v8.42h-6.61v-8.42Zm-352.54,42.1h6.61v8.42h-6.61v-8.42Zm352.54,0h6.61v8.42h-6.61v-8.42Zm-352.54,42.12h6.61v8.42h-6.61v-8.42Zm352.54,0h6.61v8.42h-6.61v-8.42Zm-352.54,42.11h6.61v8.42h-6.61v-8.42Zm352.54,0h6.61v8.42h-6.61v-8.42Zm-352.54,42.11h6.61v8.42h-6.61v-8.42Zm352.54,0h6.61v8.42h-6.61v-8.42Zm-352.54,42.11h6.61v8.42h-6.61v-8.42Zm352.54,0h6.61v8.42h-6.61v-8.42Zm-352.54,42.11h6.61v8.42h-6.61v-8.42Zm352.54,0h6.61v8.42h-6.61v-8.42Zm-352.54,42.11h6.61v8.42h-6.61v-8.42Zm352.54,0h6.61v8.42h-6.61v-8.42Zm-352.54,42.11h6.61v8.42h-6.61v-8.42Zm352.54,0h6.61v8.42h-6.61v-8.42Zm-352.54,42.11h6.61v8.42h-6.61v-8.42Zm352.54,0h6.61v8.42h-6.61v-8.42Zm-352.54,42.11h6.61v8.42h-6.61v-8.42Zm352.54,0h6.61v8.42h-6.61v-8.42ZM724.81,0h6.61V8.42h-6.61V0Zm352.55,0h6.61V8.42h-6.61V0Zm-352.54,42.11h6.61v8.42h-6.61v-8.42Zm352.55,0h6.61v8.42h-6.61v-8.42Zm-352.54,42.11h6.61v8.42h-6.61v-8.42h0Zm352.54,0h6.61v8.42h-6.61v-8.42Zm-352.54,42.1h6.61v8.42h-6.61v-8.42Zm352.55,0h6.61v8.42h-6.61v-8.42Zm-352.54,42.12h6.61v8.42h-6.61v-8.42Zm352.55,0h6.61v8.42h-6.61v-8.42Zm-352.54,42.11h6.61v8.42h-6.61v-8.42Zm352.55,0h6.61v8.42h-6.61v-8.42Zm-352.54,42.11h6.61v8.42h-6.61v-8.42Zm352.55,0h6.61v8.42h-6.61v-8.42Zm-352.54,42.11h6.61v8.42h-6.61v-8.42Zm352.55,0h6.61v8.42h-6.61v-8.42Zm-352.54,42.11h6.61v8.42h-6.61v-8.42Zm352.55,0h6.61v8.42h-6.61v-8.42Zm-352.54,42.11h6.61v8.42h-6.61v-8.42Zm352.55,0h6.61v8.42h-6.61v-8.42Zm-352.54,42.11h6.61v8.42h-6.61v-8.42Zm352.55,0h6.61v8.42h-6.61v-8.42Zm-352.54,42.11h6.61v8.42h-6.61v-8.42Zm352.55,0h6.61v8.42h-6.61v-8.42Zm-352.54,42.11h6.61v8.42h-6.61v-8.42Zm352.55,0h6.61v8.42h-6.61v-8.42ZM760.07,0h6.61V8.42h-6.61V0Zm352.55,0h6.61V8.42h-6.61V0Zm-352.55,42.11h6.61v8.42h-6.61v-8.42Zm352.54,0h6.61v8.42h-6.61v-8.42Zm-352.55,42.11h6.61v8.42h-6.61v-8.42Zm352.54,0h6.61v8.42h-6.61v-8.42h0Zm-352.54,42.1h6.61v8.42h-6.61v-8.42Zm352.55,0h6.61v8.42h-6.61v-8.42Zm-352.55,42.12h6.61v8.42h-6.61v-8.42Zm352.54,0h6.61v8.42h-6.61v-8.42Zm-352.55,42.11h6.61v8.42h-6.61v-8.42Zm352.54,0h6.61v8.42h-6.61v-8.42Zm-352.55,42.11h6.61v8.42h-6.61v-8.42Zm352.54,0h6.61v8.42h-6.61v-8.42Zm-352.55,42.11h6.61v8.42h-6.61v-8.42Zm352.54,0h6.61v8.42h-6.61v-8.42Zm-352.55,42.11h6.61v8.42h-6.61v-8.42Zm352.54,0h6.61v8.42h-6.61v-8.42Zm-352.55,42.11h6.61v8.42h-6.61v-8.42Zm352.54,0h6.61v8.42h-6.61v-8.42Zm-352.55,42.11h6.61v8.42h-6.61v-8.42Zm352.54,0h6.61v8.42h-6.61v-8.42Zm-352.55,42.11h6.61v8.42h-6.61v-8.42Zm352.54,0h6.61v8.42h-6.61v-8.42Zm-352.55,42.11h6.61v8.42h-6.61v-8.42Zm352.54,0h6.61v8.42h-6.61v-8.42ZM795.32,0h6.61V8.42h-6.61V0Zm352.54,0h6.61V8.42h-6.61V0Zm-352.54,42.11h6.61v8.42h-6.61v-8.42Zm352.54,0h6.61v8.42h-6.61v-8.42Zm-352.54,42.11h6.61v8.42h-6.61v-8.42Zm352.54,0h6.61v8.42h-6.61v-8.42Zm-352.54,42.1h6.61v8.42h-6.61v-8.42Zm352.54,0h6.61v8.42h-6.61v-8.42Zm-352.54,42.12h6.61v8.42h-6.61v-8.42Zm352.54,0h6.61v8.42h-6.61v-8.42Zm-352.54,42.11h6.61v8.42h-6.61v-8.42Zm352.54,0h6.61v8.42h-6.61v-8.42Zm-352.54,42.11h6.61v8.42h-6.61v-8.42Zm352.54,0h6.61v8.42h-6.61v-8.42Zm-352.54,42.11h6.61v8.42h-6.61v-8.42Zm352.54,0h6.61v8.42h-6.61v-8.42Zm-352.54,42.11h6.61v8.42h-6.61v-8.42Zm352.54,0h6.61v8.42h-6.61v-8.42Zm-352.54,42.11h6.61v8.42h-6.61v-8.42Zm352.54,0h6.61v8.42h-6.61v-8.42Zm-352.54,42.11h6.61v8.42h-6.61v-8.42Zm352.54,0h6.61v8.42h-6.61v-8.42Zm-352.54,42.11h6.61v8.42h-6.61v-8.42Zm352.54,0h6.61v8.42h-6.61v-8.42Zm-352.54,42.11h6.61v8.42h-6.61v-8.42Zm352.54,0h6.61v8.42h-6.61v-8.42ZM830.58,0h6.61V8.42h-6.61V0Zm352.54,0h6.62V8.42h-6.61V0Zm-352.55,42.11h6.61v8.42h-6.61v-8.42Zm352.54,0h6.62v8.42h-6.62v-8.42Zm-352.54,42.11h6.61v8.42h-6.61v-8.42Zm352.54,0h6.62v8.42h-6.62v-8.42Zm-352.54,42.1h6.61v8.42h-6.61v-8.42Zm352.54,0h6.62v8.42h-6.62v-8.42Zm-352.54,42.12h6.61v8.42h-6.61v-8.42Zm352.54,0h6.62v8.42h-6.62v-8.42Zm-352.54,42.11h6.61v8.42h-6.61v-8.42Zm352.54,0h6.62v8.42h-6.62v-8.42Zm-352.54,42.11h6.61v8.42h-6.61v-8.42Zm352.54,0h6.62v8.42h-6.62v-8.42Zm-352.54,42.11h6.61v8.42h-6.61v-8.42Zm352.54,0h6.62v8.42h-6.62v-8.42Zm-352.54,42.11h6.61v8.42h-6.61v-8.42Zm352.54,0h6.62v8.42h-6.62v-8.42Zm-352.54,42.11h6.61v8.42h-6.61v-8.42Zm352.54,0h6.62v8.42h-6.62v-8.42Zm-352.54,42.11h6.61v8.42h-6.61v-8.42Zm352.54,0h6.62v8.42h-6.62v-8.42Zm-352.54,42.11h6.61v8.42h-6.61v-8.42Zm352.54,0h6.62v8.42h-6.62v-8.42Zm-352.54,42.11h6.61v8.42h-6.61v-8.42Zm352.54,0h6.62v8.42h-6.62v-8.42ZM865.83,0h6.61V8.42h-6.61V0Zm352.54,0h6.61V8.42h-6.61V0Zm-352.54,42.11h6.61v8.42h-6.61v-8.42Zm352.54,0h6.61v8.42h-6.61v-8.42Zm-352.54,42.11h6.61v8.42h-6.61v-8.42Zm352.54,0h6.61v8.42h-6.61v-8.42Zm-352.54,42.1h6.61v8.42h-6.61v-8.42Zm352.54,0h6.61v8.42h-6.61v-8.42Zm-352.54,42.12h6.61v8.42h-6.61v-8.42Zm352.54,0h6.61v8.42h-6.61v-8.42Zm-352.54,42.11h6.61v8.42h-6.61v-8.42Zm352.54,0h6.61v8.42h-6.61v-8.42Zm-352.54,42.11h6.61v8.42h-6.61v-8.42Zm352.54,0h6.61v8.42h-6.61v-8.42Zm-352.54,42.11h6.61v8.42h-6.61v-8.42Zm352.54,0h6.61v8.42h-6.61v-8.42Zm-352.54,42.11h6.61v8.42h-6.61v-8.42Zm352.54,0h6.61v8.42h-6.61v-8.42Zm-352.54,42.11h6.61v8.42h-6.61v-8.42Zm352.54,0h6.61v8.42h-6.61v-8.42Zm-352.54,42.11h6.61v8.42h-6.61v-8.42Zm352.54,0h6.61v8.42h-6.61v-8.42Zm-352.54,42.11h6.61v8.42h-6.61v-8.42Zm352.54,0h6.61v8.42h-6.61v-8.42Zm-352.54,42.11h6.61v8.42h-6.61v-8.42Zm352.54,0h6.61v8.42h-6.61v-8.42ZM901.09,0h6.61V8.42h-6.61V0Zm352.55,0h6.61V8.42h-6.61V0Zm-352.55,42.11h6.61v8.42h-6.61v-8.42Zm352.55,0h6.61v8.42h-6.61v-8.42Zm-352.55,42.11h6.61v8.42h-6.61v-8.42Zm352.55,0h6.61v8.42h-6.61v-8.42Zm-352.55,42.1h6.61v8.42h-6.61v-8.42Zm352.55,0h6.61v8.42h-6.61v-8.42Zm-352.55,42.12h6.61v8.42h-6.61v-8.42Zm352.55,0h6.61v8.42h-6.61v-8.42Zm-352.55,42.11h6.61v8.42h-6.61v-8.42Zm352.55,0h6.61v8.42h-6.61v-8.42Zm-352.55,42.11h6.61v8.42h-6.61v-8.42Zm352.55,0h6.61v8.42h-6.61v-8.42Zm-352.55,42.11h6.61v8.42h-6.61v-8.42Zm352.55,0h6.61v8.42h-6.61v-8.42Zm-352.55,42.11h6.61v8.42h-6.61v-8.42Zm352.55,0h6.61v8.42h-6.61v-8.42Zm-352.55,42.11h6.61v8.42h-6.61v-8.42Zm352.55,0h6.61v8.42h-6.61v-8.42Zm-352.55,42.11h6.61v8.42h-6.61v-8.42Zm352.55,0h6.61v8.42h-6.61v-8.42Zm-352.55,42.11h6.61v8.42h-6.61v-8.42Zm352.55,0h6.61v8.42h-6.61v-8.42Zm-352.55,42.11h6.61v8.42h-6.61v-8.42Zm352.55,0h6.61v8.42h-6.61v-8.42ZM936.34,0h6.61V8.42h-6.61V0Zm352.55,0h6.61V8.42h-6.61V0Zm-352.55,42.11h6.61v8.42h-6.61v-8.42Zm352.55,0h6.61v8.42h-6.61v-8.42Zm-352.55,42.11h6.61v8.42h-6.61v-8.42Zm352.55,0h6.61v8.42h-6.61v-8.42Zm-352.55,42.1h6.61v8.42h-6.61v-8.42Zm352.55,0h6.61v8.42h-6.61v-8.42Zm-352.55,42.12h6.61v8.42h-6.61v-8.42Zm352.55,0h6.61v8.42h-6.61v-8.42Zm-352.55,42.11h6.61v8.42h-6.61v-8.42Zm352.55,0h6.61v8.42h-6.61v-8.42Zm-352.55,42.11h6.61v8.42h-6.61v-8.42Zm352.55,0h6.61v8.42h-6.61v-8.42Zm-352.55,42.11h6.61v8.42h-6.61v-8.42Zm352.55,0h6.61v8.42h-6.61v-8.42Zm-352.55,42.11h6.61v8.42h-6.61v-8.42Zm352.55,0h6.61v8.42h-6.61v-8.42Zm-352.55,42.11h6.61v8.42h-6.61v-8.42Zm352.55,0h6.61v8.42h-6.61v-8.42Zm-352.55,42.11h6.61v8.42h-6.61v-8.42Zm352.55,0h6.61v8.42h-6.61v-8.42Zm-352.55,42.11h6.61v8.42h-6.61v-8.42Zm352.55,0h6.61v8.42h-6.61v-8.42Zm-352.55,42.11h6.61v8.42h-6.61v-8.42Zm352.55,0h6.61v8.42h-6.61v-8.42ZM971.59,0h6.61V8.42h-6.61V0Zm352.54,0h6.61V8.42h-6.61V0Zm-352.54,42.11h6.61v8.42h-6.61v-8.42Zm352.54,0h6.61v8.42h-6.61v-8.42Zm-352.54,42.11h6.61v8.42h-6.61v-8.42Zm352.54,0h6.61v8.42h-6.61v-8.42Zm-352.54,42.1h6.61v8.42h-6.61v-8.42Zm352.54,0h6.61v8.42h-6.61v-8.42Zm-352.54,42.12h6.61v8.42h-6.61v-8.42Zm352.54,0h6.61v8.42h-6.61v-8.42Zm-352.54,42.11h6.61v8.42h-6.61v-8.42Zm352.54,0h6.61v8.42h-6.61v-8.42Zm-352.54,42.11h6.61v8.42h-6.61v-8.42Zm352.54,0h6.61v8.42h-6.61v-8.42Zm-352.54,42.11h6.61v8.42h-6.61v-8.42Zm352.54,0h6.61v8.42h-6.61v-8.42Zm-352.54,42.11h6.61v8.42h-6.61v-8.42Zm352.54,0h6.61v8.42h-6.61v-8.42Zm-352.54,42.11h6.61v8.42h-6.61v-8.42Zm352.54,0h6.61v8.42h-6.61v-8.42Zm-352.54,42.11h6.61v8.42h-6.61v-8.42Zm352.54,0h6.61v8.42h-6.61v-8.42Zm-352.54,42.11h6.61v8.42h-6.61v-8.42Zm352.54,0h6.61v8.42h-6.61v-8.42Zm-352.54,42.11h6.61v8.42h-6.61v-8.42Zm352.54,0h6.61v8.42h-6.61v-8.42ZM1006.85,0h6.61V8.42h-6.61V0Zm352.54,0h6.61V8.42h-6.61V0Zm-352.54,42.11h6.61v8.42h-6.61v-8.42Zm352.54,0h6.61v8.42h-6.61v-8.42Zm-352.54,42.11h6.61v8.42h-6.61v-8.42Zm352.54,0h6.61v8.42h-6.61v-8.42Zm-352.54,42.1h6.61v8.42h-6.61v-8.42Zm352.54,0h6.61v8.42h-6.61v-8.42Zm-352.54,42.12h6.61v8.42h-6.61v-8.42Zm352.54,0h6.61v8.42h-6.61v-8.42Zm-352.54,42.11h6.61v8.42h-6.61v-8.42Zm352.54,0h6.61v8.42h-6.61v-8.42Zm-352.54,42.11h6.61v8.42h-6.61v-8.42Zm352.54,0h6.61v8.42h-6.61v-8.42Zm-352.54,42.11h6.61v8.42h-6.61v-8.42Zm352.54,0h6.61v8.42h-6.61v-8.42Zm-352.54,42.11h6.61v8.42h-6.61v-8.42Zm352.54,0h6.61v8.42h-6.61v-8.42Zm-352.54,42.11h6.61v8.42h-6.61v-8.42Zm352.54,0h6.61v8.42h-6.61v-8.42Zm-352.54,42.11h6.61v8.42h-6.61v-8.42Zm352.54,0h6.61v8.42h-6.61v-8.42Zm-352.54,42.11h6.61v8.42h-6.61v-8.42Zm352.54,0h6.61v8.42h-6.61v-8.42Zm-352.54,42.11h6.61v8.42h-6.61v-8.42Zm352.54,0h6.61v8.42h-6.61v-8.42Z"/></svg>