<?xml version="1.0" encoding="UTF-8"?><svg id="a" xmlns="http://www.w3.org/2000/svg" xmlns:xlink="http://www.w3.org/1999/xlink" viewBox="0 0 500 53.41"><defs><style>.u{fill:none;}.v,.w{fill:#e5eef4;}.w{fill-rule:evenodd;}.x{clip-path:url(#d);}.y{clip-path:url(#o);}</style><clipPath id="d"><rect class="u" x="1.17" y="0" width="498.83" height="53.41"/></clipPath><clipPath id="o"><rect class="u" x="1.17" y="0" width="498.83" height="53.41"/></clipPath></defs><g id="b" transform="translate(1 0)"><g id="c" transform="translate(-0.342 0)"><g class="x"><g id="e"><path id="f" class="w" d="M209.54,1.34h-21.27V53.13h20.96c11.61-.04,21.05-9.37,21.23-20.98v-10.43c-.2-11.38-9.54-20.48-20.92-20.38m12.62,29.57c.22,7.57-5.74,13.88-13.31,14.09-.11,0-.21,0-.32,0h-11.13V9.45h11.13c7.57,.04,13.67,6.21,13.63,13.78,0,.11,0,.22,0,.33v7.34Z"/><rect id="g" class="v" x="235.74" y="1.33" width="9.13" height="51.8"/><path id="h" class="w" d="M371.52,38.48l-3.13-8.59-10.4-28.56h-9.64l-18.85,51.8h9.13l14.54-39.96,6.08,16.71h-8.4l-3.14,8.57,14.66,.02,5.34,14.67h9.12l-5.33-14.65Z"/><path id="i" class="w" d="M457.16,38.48l-3.13-8.59-10.4-28.56h-9.64l-18.86,51.8h9.13l14.54-39.96,6.08,16.71h-8.4l-3.14,8.57,14.66,.02,5.34,14.67h9.12l-5.33-14.65Z"/><path id="j" class="w" d="M316.73,1.34V22.67h-20.15V1.34h-9.13V53.13h9.13V31.8h20.15v21.34h9.13V1.34h-9.13Z"/><path id="k" class="w" d="M471.13,26.7c-.12,9.82,7.74,17.88,17.56,18.01h0c4.16,0,8.17-1.51,11.31-4.23v10.29c-3.52,1.74-7.39,2.65-11.31,2.64-14.57-.18-26.22-12.14-26.04-26.7C462.46,12.14,474.12,.19,488.68,0h0c3.92,0,7.79,.9,11.31,2.64V12.93c-3.14-2.73-7.15-4.24-11.31-4.24-9.82,.13-17.68,8.19-17.56,18.02"/><path id="l" class="w" d="M269.75,1.34h-19.13V53.13h9.13V8.89h10c3.64-.28,6.82,2.45,7.1,6.09,.01,.18,.02,.37,.02,.55,.09,2.56-.88,5.04-2.67,6.87-2.41,2.27-5.62,3.49-8.93,3.36v7.56c5.34,.13,10.5-1.9,14.32-5.63,3.2-3.27,4.95-7.7,4.83-12.28-.15-9.24-7.49-14.07-14.67-14.07"/><path id="m" class="w" d="M396.56,53.09c-5.72-.02-11.43-.64-17.02-1.84l2.06-9.22c5.43,1.17,10.98,1.7,16.53,1.6,5.47-.21,7.92-3.64,7.88-6.77-.04-3.03-2.29-4.88-6.03-4.93-.6,0-1.29,0-2.04,.03-4.71,.12-11.83,.3-16.43-4.48-2.87-3.24-4.19-7.56-3.64-11.84,.15-4.23,2.15-8.19,5.47-10.82,7.22-5.65,19-4.42,28.45-2.72,.53,.1,.95,.18,1.26,.22l-1.42,9.34c-.37-.06-.89-.15-1.52-.26-10.7-1.93-17.75-1.63-20.95,.87-1.21,.96-1.9,2.44-1.87,3.99-.26,1.64,.1,3.31,1.02,4.69,1.71,1.78,6.33,1.66,9.38,1.58,.89-.02,1.7-.05,2.42-.03,10.43,.15,15.27,7.51,15.34,14.27,.09,7.59-5.83,15.89-16.97,16.3-.58,.02-1.22,.03-1.91,.03"/></g></g></g><g id="n" transform="translate(-1 0)"><g class="y"><g id="p" transform="translate(0.658)"><rect id="q" class="v" x="150.97" y=".62" width="7.75" height="48.79"/><rect id="r" class="v" x="139.45" y=".62" width="7.75" height="48.79"/><rect id="s" class="v" x="127.94" y=".62" width="7.75" height="48.79"/></g></g><rect id="t" class="v" y=".62" width="123.05" height="48.79"/></g></g></svg>