<?xml version="1.0" encoding="UTF-8"?><svg id="a" xmlns="http://www.w3.org/2000/svg" viewBox="0 0 2087.54 413.21"><defs><style>.e{fill:#5597d1;}.f{fill:none;stroke:#0b2753;stroke-width:2px;}</style></defs><path id="b" class="e" d="M1319.77,65.23h3.65v4.73h-3.65v-4.73Zm194.89,0h3.65v4.73h-3.65v-4.73Zm-194.89,23.67h3.65v4.73h-3.65v-4.73Zm194.89,0h3.65v4.73h-3.65v-4.73Zm-194.89,23.67h3.65v4.73h-3.65v-4.73Zm194.89,0h3.65v4.73h-3.65v-4.73Zm-194.89,23.66h3.65v4.73h-3.65v-4.73Zm194.89,0h3.65v4.73h-3.65v-4.73Zm-194.89,23.67h3.65v4.73h-3.65v-4.73Zm194.89,0h3.65v4.73h-3.65v-4.73Zm-194.89,23.67h3.65v4.73h-3.65v-4.73Zm194.89,0h3.65v4.73h-3.65v-4.73Zm-194.89,23.67h3.65v4.73h-3.65v-4.73Zm194.89,0h3.65v4.73h-3.65v-4.73Zm-194.89,23.67h3.65v4.73h-3.65v-4.73Zm194.89,0h3.65v4.73h-3.65v-4.73Zm-194.89,23.67h3.65v4.73h-3.65v-4.73Zm194.89,0h3.65v4.73h-3.65v-4.73Zm-194.89,23.67h3.65v4.73h-3.65v-4.73Zm194.89,0h3.65v4.73h-3.65v-4.73Zm-194.89,23.67h3.65v4.73h-3.65v-4.73Zm194.89,0h3.65v4.73h-3.65v-4.73Zm-194.89,23.67h3.65v4.73h-3.65v-4.73Zm194.89,0h3.65v4.73h-3.65v-4.73Zm-194.89,23.67h3.65v4.73h-3.65v-4.73Zm194.89,0h3.65v4.73h-3.65v-4.73Zm-175.4-284.02h3.65v4.73h-3.65v-4.73Zm194.89,0h3.65v4.73h-3.65v-4.73Zm-194.89,23.67h3.65v4.73h-3.65v-4.73h0Zm194.89,0h3.65v4.73h-3.65v-4.73Zm-194.89,23.67h3.65v4.73h-3.65v-4.73h0Zm194.89,0h3.65v4.73h-3.65v-4.73Zm-194.89,23.66h3.65v4.73h-3.65v-4.73h0Zm194.89,0h3.65v4.73h-3.65v-4.73Zm-194.89,23.67h3.65v4.73h-3.65v-4.73h0Zm194.89,0h3.65v4.73h-3.65v-4.73Zm-194.89,23.67h3.65v4.73h-3.65v-4.73h0Zm194.89,0h3.65v4.73h-3.65v-4.73Zm-194.89,23.67h3.65v4.73h-3.65v-4.73h0Zm194.89,0h3.65v4.73h-3.65v-4.73Zm-194.89,23.67h3.65v4.73h-3.65v-4.73h0Zm194.89,0h3.65v4.73h-3.65v-4.73Zm-194.89,23.67h3.65v4.73h-3.65v-4.73h0Zm194.89,0h3.65v4.73h-3.65v-4.73Zm-194.89,23.67h3.65v4.73h-3.65v-4.73h0Zm194.89,0h3.65v4.73h-3.65v-4.73Zm-194.89,23.67h3.65v4.73h-3.65v-4.73h0Zm194.89,0h3.65v4.73h-3.65v-4.73Zm-194.89,23.67h3.65v4.73h-3.65v-4.73h0Zm194.89,0h3.65v4.73h-3.65v-4.73Zm-194.89,23.67h3.65v4.73h-3.65v-4.73h0Zm194.89,0h3.65v4.73h-3.65v-4.73Zm-175.4-284.02h3.65v4.73h-3.65v-4.73Zm194.89,0h3.65v4.73h-3.65v-4.73Zm-194.89,23.67h3.65v4.73h-3.65v-4.73Zm194.89,0h3.65v4.73h-3.65v-4.73Zm-194.89,23.67h3.65v4.73h-3.65v-4.73Zm194.89,0h3.65v4.73h-3.65v-4.73Zm-194.89,23.66h3.65v4.73h-3.65v-4.73Zm194.89,0h3.65v4.73h-3.65v-4.73Zm-194.89,23.67h3.65v4.73h-3.65v-4.73Zm194.89,0h3.65v4.73h-3.65v-4.73Zm-194.89,23.67h3.65v4.73h-3.65v-4.73Zm194.89,0h3.65v4.73h-3.65v-4.73Zm-194.89,23.67h3.65v4.73h-3.65v-4.73Zm194.89,0h3.65v4.73h-3.65v-4.73Zm-194.89,23.67h3.65v4.73h-3.65v-4.73Zm194.89,0h3.65v4.73h-3.65v-4.73Zm-194.89,23.67h3.65v4.73h-3.65v-4.73Zm194.89,0h3.65v4.73h-3.65v-4.73Zm-194.89,23.67h3.65v4.73h-3.65v-4.73Zm194.89,0h3.65v4.73h-3.65v-4.73Zm-194.89,23.67h3.65v4.73h-3.65v-4.73Zm194.89,0h3.65v4.73h-3.65v-4.73Zm-194.89,23.67h3.65v4.73h-3.65v-4.73Zm194.89,0h3.65v4.73h-3.65v-4.73Zm-194.89,23.67h3.65v4.73h-3.65v-4.73Zm194.89,0h3.65v4.73h-3.65v-4.73Zm-175.4-284.02h3.65v4.73h-3.65v-4.73Zm194.89,0h3.65v4.73h-3.65v-4.73Zm-194.89,23.67h3.65v4.73h-3.65v-4.73Zm194.89,0h3.65v4.73h-3.65v-4.73Zm-194.89,23.67h3.65v4.73h-3.65v-4.73Zm194.89,0h3.65v4.73h-3.65v-4.73Zm-194.89,23.66h3.65v4.73h-3.65v-4.73Zm194.89,0h3.65v4.73h-3.65v-4.73Zm-194.89,23.67h3.65v4.73h-3.65v-4.73Zm194.89,0h3.65v4.73h-3.65v-4.73Zm-194.89,23.67h3.65v4.73h-3.65v-4.73Zm194.89,0h3.65v4.73h-3.65v-4.73Zm-194.89,23.67h3.65v4.73h-3.65v-4.73Zm194.89,0h3.65v4.73h-3.65v-4.73Zm-194.89,23.67h3.65v4.73h-3.65v-4.73Zm194.89,0h3.65v4.73h-3.65v-4.73Zm-194.89,23.67h3.65v4.73h-3.65v-4.73Zm194.89,0h3.65v4.73h-3.65v-4.73Zm-194.89,23.67h3.65v4.73h-3.65v-4.73Zm194.89,0h3.65v4.73h-3.65v-4.73Zm-194.89,23.67h3.65v4.73h-3.65v-4.73Zm194.89,0h3.65v4.73h-3.65v-4.73Zm-194.89,23.67h3.65v4.73h-3.65v-4.73Zm194.89,0h3.65v4.73h-3.65v-4.73Zm-194.89,23.67h3.65v4.73h-3.65v-4.73Zm194.89,0h3.65v4.73h-3.65v-4.73Zm-175.4-284.02h3.65v4.73h-3.65v-4.73Zm194.89,0h3.65v4.73h-3.65v-4.73Zm-194.89,23.67h3.65v4.73h-3.65v-4.73Zm194.89,0h3.65v4.73h-3.65v-4.73Zm-194.89,23.67h3.65v4.73h-3.65v-4.73Zm194.89,0h3.65v4.73h-3.65v-4.73h0Zm-194.89,23.66h3.65v4.73h-3.65v-4.73Zm194.89,0h3.65v4.73h-3.65v-4.73Zm-194.89,23.67h3.65v4.73h-3.65v-4.73Zm194.89,0h3.65v4.73h-3.65v-4.73Zm-194.89,23.67h3.65v4.73h-3.65v-4.73Zm194.89,0h3.65v4.73h-3.65v-4.73Zm-194.89,23.67h3.65v4.73h-3.65v-4.73Zm194.89,0h3.65v4.73h-3.65v-4.73Zm-194.89,23.67h3.65v4.73h-3.65v-4.73Zm194.89,0h3.65v4.73h-3.65v-4.73Zm-194.89,23.67h3.65v4.73h-3.65v-4.73Zm194.89,0h3.65v4.73h-3.65v-4.73Zm-194.89,23.67h3.65v4.73h-3.65v-4.73Zm194.89,0h3.65v4.73h-3.65v-4.73Zm-194.89,23.67h3.65v4.73h-3.65v-4.73Zm194.89,0h3.65v4.73h-3.65v-4.73Zm-194.89,23.67h3.65v4.73h-3.65v-4.73Zm194.89,0h3.65v4.73h-3.65v-4.73Zm-194.89,23.67h3.65v4.73h-3.65v-4.73Zm194.89,0h3.65v4.73h-3.65v-4.73Zm-175.4-284.02h3.65v4.73h-3.65v-4.73Zm194.89,0h3.65v4.73h-3.65v-4.73Zm-194.89,23.67h3.65v4.73h-3.65v-4.73Zm194.89,0h3.65v4.73h-3.65v-4.73Zm-194.89,23.67h3.65v4.73h-3.65v-4.73Zm194.89,0h3.65v4.73h-3.65v-4.73Zm-194.89,23.66h3.65v4.73h-3.65v-4.73Zm194.89,0h3.65v4.73h-3.65v-4.73Zm-194.89,23.67h3.65v4.73h-3.65v-4.73Zm194.89,0h3.65v4.73h-3.65v-4.73Zm-194.89,23.67h3.65v4.73h-3.65v-4.73Zm194.89,0h3.65v4.73h-3.65v-4.73Zm-194.89,23.67h3.65v4.73h-3.65v-4.73Zm194.89,0h3.65v4.73h-3.65v-4.73Zm-194.89,23.67h3.65v4.73h-3.65v-4.73Zm194.89,0h3.65v4.73h-3.65v-4.73Zm-194.89,23.67h3.65v4.73h-3.65v-4.73Zm194.89,0h3.65v4.73h-3.65v-4.73Zm-194.89,23.67h3.65v4.73h-3.65v-4.73Zm194.89,0h3.65v4.73h-3.65v-4.73Zm-194.89,23.67h3.65v4.73h-3.65v-4.73Zm194.89,0h3.65v4.73h-3.65v-4.73Zm-194.89,23.67h3.65v4.73h-3.65v-4.73Zm194.89,0h3.65v4.73h-3.65v-4.73Zm-194.89,23.67h3.65v4.73h-3.65v-4.73Zm194.89,0h3.65v4.73h-3.65v-4.73Zm-175.4-284.02h3.65v4.73h-3.65v-4.73Zm194.89,0h3.65v4.73h-3.65v-4.73Zm-194.89,23.67h3.65v4.73h-3.65v-4.73Zm194.89,0h3.65v4.73h-3.65v-4.73Zm-194.89,23.67h3.65v4.73h-3.65v-4.73Zm194.89,0h3.65v4.73h-3.65v-4.73Zm-194.89,23.66h3.65v4.73h-3.65v-4.73Zm194.89,0h3.65v4.73h-3.65v-4.73Zm-194.89,23.67h3.65v4.73h-3.65v-4.73Zm194.89,0h3.65v4.73h-3.65v-4.73Zm-194.89,23.67h3.65v4.73h-3.65v-4.73Zm194.89,0h3.65v4.73h-3.65v-4.73Zm-194.89,23.67h3.65v4.73h-3.65v-4.73Zm194.89,0h3.65v4.73h-3.65v-4.73Zm-194.89,23.67h3.65v4.73h-3.65v-4.73Zm194.89,0h3.65v4.73h-3.65v-4.73Zm-194.89,23.67h3.65v4.73h-3.65v-4.73Zm194.89,0h3.65v4.73h-3.65v-4.73Zm-194.89,23.67h3.65v4.73h-3.65v-4.73Zm194.89,0h3.65v4.73h-3.65v-4.73Zm-194.89,23.67h3.65v4.73h-3.65v-4.73Zm194.89,0h3.65v4.73h-3.65v-4.73Zm-194.89,23.67h3.65v4.73h-3.65v-4.73Zm194.89,0h3.65v4.73h-3.65v-4.73Zm-194.89,23.67h3.65v4.73h-3.65v-4.73Zm194.89,0h3.65v4.73h-3.65v-4.73Zm-175.4-284.02h3.65v4.73h-3.65v-4.73Zm194.89,0h3.65v4.73h-3.65v-4.73Zm-194.89,23.67h3.65v4.73h-3.65v-4.73Zm194.89,0h3.65v4.73h-3.65v-4.73Zm-194.89,23.67h3.65v4.73h-3.65v-4.73Zm194.89,0h3.65v4.73h-3.65v-4.73Zm-194.89,23.66h3.65v4.73h-3.65v-4.73Zm194.89,0h3.65v4.73h-3.65v-4.73Zm-194.89,23.67h3.65v4.73h-3.65v-4.73Zm194.89,0h3.65v4.73h-3.65v-4.73Zm-194.89,23.67h3.65v4.73h-3.65v-4.73Zm194.89,0h3.65v4.73h-3.65v-4.73Zm-194.89,23.67h3.65v4.73h-3.65v-4.73Zm194.89,0h3.65v4.73h-3.65v-4.73Zm-194.89,23.67h3.65v4.73h-3.65v-4.73Zm194.89,0h3.65v4.73h-3.65v-4.73Zm-194.89,23.67h3.65v4.73h-3.65v-4.73Zm194.89,0h3.65v4.73h-3.65v-4.73Zm-194.89,23.67h3.65v4.73h-3.65v-4.73Zm194.89,0h3.65v4.73h-3.65v-4.73Zm-194.89,23.67h3.65v4.73h-3.65v-4.73Zm194.89,0h3.65v4.73h-3.65v-4.73Zm-194.89,23.67h3.65v4.73h-3.65v-4.73Zm194.89,0h3.65v4.73h-3.65v-4.73Zm-194.89,23.67h3.65v4.73h-3.65v-4.73Zm194.89,0h3.65v4.73h-3.65v-4.73Zm-175.4-284.02h3.65v4.73h-3.65v-4.73Zm194.89,0h3.65v4.73h-3.65v-4.73Zm-194.89,23.67h3.65v4.73h-3.65v-4.73Zm194.89,0h3.65v4.73h-3.66v-4.73Zm-194.89,23.67h3.65v4.73h-3.65v-4.73Zm194.89,0h3.65v4.73h-3.66v-4.73h0Zm-194.89,23.66h3.65v4.73h-3.65v-4.73Zm194.89,0h3.65v4.73h-3.65v-4.73Zm-194.89,23.67h3.65v4.73h-3.65v-4.73Zm194.89,0h3.65v4.73h-3.66v-4.73Zm-194.89,23.67h3.65v4.73h-3.65v-4.73Zm194.89,0h3.65v4.73h-3.66v-4.73Zm-194.89,23.67h3.65v4.73h-3.65v-4.73Zm194.89,0h3.65v4.73h-3.66v-4.73Zm-194.89,23.67h3.65v4.73h-3.65v-4.73Zm194.89,0h3.65v4.73h-3.66v-4.73Zm-194.89,23.67h3.65v4.73h-3.65v-4.73Zm194.89,0h3.65v4.73h-3.66v-4.73Zm-194.89,23.67h3.65v4.73h-3.65v-4.73Zm194.89,0h3.65v4.73h-3.66v-4.73Zm-194.89,23.67h3.65v4.73h-3.65v-4.73Zm194.89,0h3.65v4.73h-3.66v-4.73Zm-194.89,23.67h3.65v4.73h-3.65v-4.73Zm194.89,0h3.65v4.73h-3.66v-4.73Zm-194.89,23.67h3.65v4.73h-3.65v-4.73Zm194.89,0h3.65v4.73h-3.66v-4.73Zm-175.4-284.02h3.65v4.73h-3.65v-4.73Zm194.9,0h3.65v4.73h-3.65v-4.73Zm-194.9,23.67h3.65v4.73h-3.65v-4.73Zm194.89,0h3.65v4.73h-3.65v-4.73Zm-194.9,23.67h3.65v4.73h-3.65v-4.73Zm194.89,0h3.65v4.73h-3.65v-4.73h0Zm-194.89,23.66h3.65v4.73h-3.65v-4.73Zm194.9,0h3.65v4.73h-3.65v-4.73Zm-194.9,23.67h3.65v4.73h-3.65v-4.73Zm194.89,0h3.65v4.73h-3.65v-4.73Zm-194.9,23.67h3.65v4.73h-3.65v-4.73Zm194.89,0h3.65v4.73h-3.65v-4.73Zm-194.9,23.67h3.65v4.73h-3.65v-4.73Zm194.89,0h3.65v4.73h-3.65v-4.73Zm-194.9,23.67h3.65v4.73h-3.65v-4.73Zm194.89,0h3.65v4.73h-3.65v-4.73Zm-194.9,23.67h3.65v4.73h-3.65v-4.73Zm194.89,0h3.65v4.73h-3.65v-4.73Zm-194.9,23.67h3.65v4.73h-3.65v-4.73Zm194.89,0h3.65v4.73h-3.65v-4.73Zm-194.9,23.67h3.65v4.73h-3.65v-4.73Zm194.89,0h3.65v4.73h-3.65v-4.73Zm-194.9,23.67h3.65v4.73h-3.65v-4.73Zm194.89,0h3.65v4.73h-3.65v-4.73Zm-194.9,23.67h3.65v4.73h-3.65v-4.73Zm194.89,0h3.65v4.73h-3.65v-4.73Zm17.27-284.02h3.72v4.73h-3.72v-4.73Zm198.15,0h3.72v4.73h-3.72v-4.73Zm-198.15,23.67h3.71v4.73h-3.71v-4.73Zm198.15,0h3.72v4.73h-3.72v-4.73Zm-198.15,23.67h3.71v4.73h-3.71v-4.73Zm198.15,0h3.72v4.73h-3.72v-4.73Zm-198.15,23.66h3.71v4.73h-3.71v-4.73Zm198.15,0h3.72v4.73h-3.72v-4.73Zm-198.15,23.67h3.71v4.73h-3.71v-4.73Zm198.15,0h3.72v4.73h-3.72v-4.73Zm-198.15,23.67h3.71v4.73h-3.71v-4.73Zm198.15,0h3.72v4.73h-3.72v-4.73Zm-198.15,23.67h3.71v4.73h-3.71v-4.73Zm198.15,0h3.72v4.73h-3.72v-4.73Zm-198.15,23.67h3.71v4.73h-3.71v-4.73Zm198.15,0h3.72v4.73h-3.72v-4.73Zm-198.15,23.67h3.71v4.73h-3.71v-4.73Zm198.15,0h3.72v4.73h-3.72v-4.73Zm-198.15,23.67h3.71v4.73h-3.71v-4.73Zm198.15,0h3.72v4.73h-3.72v-4.73Zm-198.15,23.67h3.71v4.73h-3.71v-4.73Zm198.15,0h3.72v4.73h-3.72v-4.73Zm-198.15,23.67h3.71v4.73h-3.71v-4.73Zm198.15,0h3.72v4.73h-3.72v-4.73Zm-198.15,23.67h3.71v4.73h-3.71v-4.73Zm198.15,0h3.72v4.73h-3.72v-4.73Zm-178.33-284.02h3.71v4.73h-3.72v-4.73Zm198.15,0h3.72v4.73h-3.72v-4.73Zm-198.15,23.67h3.71v4.73h-3.71v-4.73Zm198.15,0h3.72v4.73h-3.72v-4.73Zm-198.15,23.67h3.71v4.73h-3.71v-4.73h0Zm198.15,0h3.72v4.73h-3.72v-4.73Zm-198.15,23.66h3.71v4.73h-3.71v-4.73Zm198.15,0h3.72v4.73h-3.72v-4.73Zm-198.15,23.67h3.71v4.73h-3.71v-4.73Zm198.15,0h3.72v4.73h-3.72v-4.73Zm-198.15,23.67h3.71v4.73h-3.71v-4.73Zm198.15,0h3.72v4.73h-3.72v-4.73Zm-198.15,23.67h3.71v4.73h-3.71v-4.73Zm198.15,0h3.72v4.73h-3.72v-4.73Zm-198.15,23.67h3.71v4.73h-3.71v-4.73Zm198.15,0h3.72v4.73h-3.72v-4.73Zm-198.15,23.67h3.71v4.73h-3.71v-4.73Zm198.15,0h3.72v4.73h-3.72v-4.73Zm-198.15,23.67h3.71v4.73h-3.71v-4.73Zm198.15,0h3.72v4.73h-3.72v-4.73Zm-198.15,23.67h3.71v4.73h-3.71v-4.73Zm198.15,0h3.72v4.73h-3.72v-4.73Zm-198.15,23.67h3.71v4.73h-3.71v-4.73Zm198.15,0h3.72v4.73h-3.72v-4.73Zm-198.15,23.67h3.71v4.73h-3.71v-4.73Zm198.15,0h3.72v4.73h-3.72v-4.73Zm-178.33-284.02h3.72v4.73h-3.72v-4.73Zm198.15,0h3.72v4.73h-3.72v-4.73Zm-198.15,23.67h3.72v4.73h-3.72v-4.73Zm198.15,0h3.72v4.73h-3.71v-4.73Zm-198.15,23.67h3.72v4.73h-3.72v-4.73Zm198.15,0h3.72v4.73h-3.71v-4.73h0Zm-198.15,23.66h3.72v4.73h-3.72v-4.73Zm198.15,0h3.72v4.73h-3.72v-4.73Zm-198.15,23.67h3.72v4.73h-3.72v-4.73Zm198.15,0h3.72v4.73h-3.71v-4.73Zm-198.15,23.67h3.72v4.73h-3.72v-4.73Zm198.15,0h3.72v4.73h-3.71v-4.73Zm-198.15,23.67h3.72v4.73h-3.72v-4.73Zm198.15,0h3.72v4.73h-3.71v-4.73Zm-198.15,23.67h3.72v4.73h-3.72v-4.73Zm198.15,0h3.72v4.73h-3.71v-4.73Zm-198.15,23.67h3.72v4.73h-3.72v-4.73Zm198.15,0h3.72v4.73h-3.71v-4.73Zm-198.15,23.67h3.72v4.73h-3.72v-4.73Zm198.15,0h3.72v4.73h-3.71v-4.73Zm-198.15,23.67h3.72v4.73h-3.72v-4.73Zm198.15,0h3.72v4.73h-3.71v-4.73Zm-198.15,23.67h3.72v4.73h-3.72v-4.73Zm198.15,0h3.72v4.73h-3.71v-4.73Zm-198.15,23.67h3.72v4.73h-3.72v-4.73Zm198.15,0h3.72v4.73h-3.71v-4.73Zm-178.33-284.02h3.71v4.73h-3.71v-4.73Zm198.15,0h3.72v4.73h-3.72v-4.73Zm-198.15,23.67h3.71v4.73h-3.71v-4.73Zm198.15,0h3.72v4.73h-3.72v-4.73Zm-198.15,23.67h3.71v4.73h-3.71v-4.73Zm198.15,0h3.72v4.73h-3.72v-4.73Zm-198.15,23.66h3.71v4.73h-3.71v-4.73Zm198.15,0h3.72v4.73h-3.72v-4.73Zm-198.15,23.67h3.71v4.73h-3.71v-4.73Zm198.15,0h3.72v4.73h-3.72v-4.73Zm-198.15,23.67h3.71v4.73h-3.71v-4.73Zm198.15,0h3.72v4.73h-3.72v-4.73Zm-198.15,23.67h3.71v4.73h-3.71v-4.73Zm198.15,0h3.72v4.73h-3.72v-4.73Zm-198.15,23.67h3.71v4.73h-3.71v-4.73Zm198.15,0h3.72v4.73h-3.72v-4.73Zm-198.15,23.67h3.71v4.73h-3.71v-4.73Zm198.15,0h3.72v4.73h-3.72v-4.73Zm-198.15,23.67h3.71v4.73h-3.71v-4.73Zm198.15,0h3.72v4.73h-3.72v-4.73Zm-198.15,23.67h3.71v4.73h-3.71v-4.73Zm198.15,0h3.72v4.73h-3.72v-4.73Zm-198.15,23.67h3.71v4.73h-3.71v-4.73Zm198.15,0h3.72v4.73h-3.72v-4.73Zm-198.15,23.67h3.71v4.73h-3.71v-4.73Zm198.15,0h3.72v4.73h-3.72v-4.73Zm-178.33-284.02h3.72v4.73h-3.72v-4.73Zm198.15,0h3.72v4.73h-3.72v-4.73Zm-198.15,23.67h3.71v4.73h-3.71v-4.73Zm198.15,0h3.72v4.73h-3.72v-4.73Zm-198.15,23.67h3.71v4.73h-3.71v-4.73Zm198.15,0h3.72v4.73h-3.72v-4.73Zm-198.15,23.66h3.71v4.73h-3.71v-4.73Zm198.15,0h3.72v4.73h-3.72v-4.73Zm-198.15,23.67h3.71v4.73h-3.71v-4.73Zm198.15,0h3.72v4.73h-3.72v-4.73Zm-198.15,23.67h3.71v4.73h-3.71v-4.73Zm198.15,0h3.72v4.73h-3.72v-4.73Zm-198.15,23.67h3.71v4.73h-3.71v-4.73Zm198.15,0h3.72v4.73h-3.72v-4.73Zm-198.15,23.67h3.71v4.73h-3.71v-4.73Zm198.15,0h3.72v4.73h-3.72v-4.73Zm-198.15,23.67h3.71v4.73h-3.71v-4.73Zm198.15,0h3.72v4.73h-3.72v-4.73Zm-198.15,23.67h3.71v4.73h-3.71v-4.73Zm198.15,0h3.72v4.73h-3.72v-4.73Zm-198.15,23.67h3.71v4.73h-3.71v-4.73Zm198.15,0h3.72v4.73h-3.72v-4.73Zm-198.15,23.67h3.71v4.73h-3.71v-4.73Zm198.15,0h3.72v4.73h-3.72v-4.73Zm-198.15,23.67h3.71v4.73h-3.71v-4.73Zm198.15,0h3.72v4.73h-3.72v-4.73Zm-178.33-284.02h3.71v4.73h-3.71v-4.73Zm198.15,0h3.72v4.73h-3.72v-4.73Zm-198.15,23.67h3.71v4.73h-3.71v-4.73Zm198.15,0h3.72v4.73h-3.72v-4.73Zm-198.15,23.67h3.71v4.73h-3.71v-4.73Zm198.15,0h3.72v4.73h-3.72v-4.73Zm-198.15,23.66h3.71v4.73h-3.71v-4.73Zm198.15,0h3.72v4.73h-3.72v-4.73Zm-198.15,23.67h3.71v4.73h-3.71v-4.73Zm198.15,0h3.72v4.73h-3.72v-4.73Zm-198.15,23.67h3.71v4.73h-3.71v-4.73Zm198.15,0h3.72v4.73h-3.72v-4.73Zm-198.15,23.67h3.71v4.73h-3.71v-4.73Zm198.15,0h3.72v4.73h-3.72v-4.73Zm-198.15,23.67h3.71v4.73h-3.71v-4.73Zm198.15,0h3.72v4.73h-3.72v-4.73Zm-198.15,23.67h3.71v4.73h-3.71v-4.73Zm198.15,0h3.72v4.73h-3.72v-4.73Zm-198.15,23.67h3.71v4.73h-3.71v-4.73Zm198.15,0h3.72v4.73h-3.72v-4.73Zm-198.15,23.67h3.71v4.73h-3.71v-4.73Zm198.15,0h3.72v4.73h-3.72v-4.73Zm-198.15,23.67h3.71v4.73h-3.71v-4.73Zm198.15,0h3.72v4.73h-3.72v-4.73Zm-198.15,23.67h3.71v4.73h-3.71v-4.73Zm198.15,0h3.72v4.73h-3.72v-4.73Zm-178.33-284.02h3.72v4.73h-3.72v-4.73Zm198.15,0h3.72v4.73h-3.72v-4.73Zm-198.15,23.67h3.72v4.73h-3.72v-4.73Zm198.15,0h3.72v4.73h-3.72v-4.73Zm-198.15,23.67h3.72v4.73h-3.72v-4.73Zm198.15,0h3.72v4.73h-3.72v-4.73Zm-198.15,23.66h3.72v4.73h-3.72v-4.73Zm198.15,0h3.72v4.73h-3.72v-4.73Zm-198.15,23.67h3.72v4.73h-3.72v-4.73Zm198.15,0h3.72v4.73h-3.72v-4.73Zm-198.15,23.67h3.72v4.73h-3.72v-4.73Zm198.15,0h3.72v4.73h-3.72v-4.73Zm-198.15,23.67h3.72v4.73h-3.72v-4.73Zm198.15,0h3.72v4.73h-3.72v-4.73Zm-198.15,23.67h3.72v4.73h-3.72v-4.73Zm198.15,0h3.72v4.73h-3.72v-4.73Zm-198.15,23.67h3.72v4.73h-3.72v-4.73Zm198.15,0h3.72v4.73h-3.72v-4.73Zm-198.15,23.67h3.72v4.73h-3.72v-4.73Zm198.15,0h3.72v4.73h-3.72v-4.73Zm-198.15,23.67h3.72v4.73h-3.72v-4.73Zm198.15,0h3.72v4.73h-3.72v-4.73Zm-198.15,23.67h3.72v4.73h-3.72v-4.73Zm198.15,0h3.72v4.73h-3.72v-4.73Zm-198.15,23.67h3.72v4.73h-3.72v-4.73Zm198.15,0h3.72v4.73h-3.72v-4.73Zm-178.33-284.02h3.72v4.73h-3.72v-4.73Zm198.15,0h3.72v4.73h-3.72v-4.73Zm-198.15,23.67h3.72v4.73h-3.72v-4.73Zm198.15,0h3.72v4.73h-3.72v-4.73Zm-198.15,23.67h3.72v4.73h-3.72v-4.73Zm198.15,0h3.72v4.73h-3.72v-4.73Zm-198.15,23.66h3.72v4.73h-3.72v-4.73Zm198.15,0h3.72v4.73h-3.72v-4.73Zm-198.15,23.67h3.72v4.73h-3.72v-4.73Zm198.15,0h3.72v4.73h-3.72v-4.73Zm-198.15,23.67h3.72v4.73h-3.72v-4.73Zm198.15,0h3.72v4.73h-3.72v-4.73Zm-198.15,23.67h3.72v4.73h-3.72v-4.73Zm198.15,0h3.72v4.73h-3.72v-4.73Zm-198.15,23.67h3.72v4.73h-3.72v-4.73Zm198.15,0h3.72v4.73h-3.72v-4.73Zm-198.15,23.67h3.72v4.73h-3.72v-4.73Zm198.15,0h3.72v4.73h-3.72v-4.73Zm-198.15,23.67h3.72v4.73h-3.72v-4.73Zm198.15,0h3.72v4.73h-3.72v-4.73Zm-198.15,23.67h3.72v4.73h-3.72v-4.73Zm198.15,0h3.72v4.73h-3.72v-4.73Zm-198.15,23.67h3.72v4.73h-3.72v-4.73Zm198.15,0h3.72v4.73h-3.72v-4.73Zm-198.15,23.67h3.72v4.73h-3.72v-4.73Zm198.15,0h3.72v4.73h-3.72v-4.73Zm-178.34-284.02h3.72v4.73h-3.72v-4.73Zm198.15,0h3.72v4.73h-3.72v-4.73Zm-198.15,23.67h3.72v4.73h-3.72v-4.73Zm198.15,0h3.72v4.73h-3.72v-4.73Zm-198.15,23.67h3.72v4.73h-3.72v-4.73Zm198.15,0h3.72v4.73h-3.72v-4.73Zm-198.15,23.66h3.72v4.73h-3.72v-4.73Zm198.15,0h3.72v4.73h-3.72v-4.73Zm-198.15,23.67h3.72v4.73h-3.72v-4.73Zm198.15,0h3.72v4.73h-3.72v-4.73Zm-198.15,23.67h3.72v4.73h-3.72v-4.73Zm198.15,0h3.72v4.73h-3.72v-4.73Zm-198.15,23.67h3.72v4.73h-3.72v-4.73Zm198.15,0h3.72v4.73h-3.72v-4.73Zm-198.15,23.67h3.72v4.73h-3.72v-4.73Zm198.15,0h3.72v4.73h-3.72v-4.73Zm-198.15,23.67h3.72v4.73h-3.72v-4.73Zm198.15,0h3.72v4.73h-3.72v-4.73Zm-198.15,23.67h3.72v4.73h-3.72v-4.73Zm198.15,0h3.72v4.73h-3.72v-4.73Zm-198.15,23.67h3.72v4.73h-3.72v-4.73Zm198.15,0h3.72v4.73h-3.72v-4.73Zm-198.15,23.67h3.72v4.73h-3.72v-4.73Zm198.15,0h3.72v4.73h-3.72v-4.73Zm-198.15,23.67h3.72v4.73h-3.72v-4.73Zm198.15,0h3.72v4.73h-3.72v-4.73Zm-178.33-284.02h3.72v4.73h-3.72v-4.73Zm198.15,0h3.72v4.73h-3.72v-4.73Zm-198.15,23.67h3.72v4.73h-3.72v-4.73Zm198.15,0h3.72v4.73h-3.72v-4.73Zm-198.15,23.67h3.72v4.73h-3.72v-4.73Zm198.15,0h3.72v4.73h-3.72v-4.73Zm-198.15,23.66h3.72v4.73h-3.72v-4.73Zm198.15,0h3.72v4.73h-3.72v-4.73Zm-198.15,23.67h3.72v4.73h-3.72v-4.73Zm198.15,0h3.72v4.73h-3.72v-4.73Zm-198.15,23.67h3.72v4.73h-3.72v-4.73Zm198.15,0h3.72v4.73h-3.72v-4.73Zm-198.15,23.67h3.72v4.73h-3.72v-4.73Zm198.15,0h3.72v4.73h-3.72v-4.73Zm-198.15,23.67h3.72v4.73h-3.72v-4.73Zm198.15,0h3.72v4.73h-3.72v-4.73Zm-198.15,23.67h3.72v4.73h-3.72v-4.73Zm198.15,0h3.72v4.73h-3.72v-4.73Zm-198.15,23.67h3.72v4.73h-3.72v-4.73Zm198.15,0h3.72v4.73h-3.72v-4.73Zm-198.15,23.67h3.72v4.73h-3.72v-4.73Zm198.15,0h3.72v4.73h-3.72v-4.73Zm-198.15,23.67h3.72v4.73h-3.72v-4.73Zm198.15,0h3.72v4.73h-3.72v-4.73Zm-198.15,23.67h3.72v4.73h-3.72v-4.73Zm198.15,0h3.72v4.73h-3.72v-4.73Z"/><path id="c" class="e" d="M0,62.23H3.65v4.73H0v-4.73Zm194.89,0h3.65v4.73h-3.65v-4.73ZM0,85.9H3.65v4.73H0v-4.73Zm194.89,0h3.65v4.73h-3.65v-4.73ZM0,109.57H3.65v4.73H0v-4.73Zm194.89,0h3.65v4.73h-3.65v-4.73ZM0,133.23H3.65v4.73H0v-4.73Zm194.89,0h3.65v4.73h-3.65v-4.73ZM0,156.9H3.65v4.73H0v-4.73Zm194.89,0h3.65v4.73h-3.65v-4.73ZM0,180.57H3.65v4.73H0v-4.73Zm194.89,0h3.65v4.73h-3.65v-4.73ZM0,204.24H3.65v4.73H0v-4.73Zm194.89,0h3.65v4.73h-3.65v-4.73ZM0,227.91H3.65v4.73H0v-4.73Zm194.89,0h3.65v4.73h-3.65v-4.73ZM0,251.58H3.65v4.73H0v-4.73Zm194.89,0h3.65v4.73h-3.65v-4.73ZM0,275.24H3.65v4.73H0v-4.73Zm194.89,0h3.65v4.73h-3.65v-4.73ZM0,298.91H3.65v4.73H0v-4.73Zm194.89,0h3.65v4.73h-3.65v-4.73ZM0,322.58H3.65v4.73H0v-4.73Zm194.89,0h3.65v4.73h-3.65v-4.73ZM0,346.25H3.65v4.73H0v-4.73Zm194.89,0h3.65v4.73h-3.65v-4.73ZM19.49,62.23h3.65v4.73h-3.65v-4.73Zm194.89,0h3.65v4.73h-3.65v-4.73ZM19.49,85.9h3.65v4.73h-3.65v-4.73h0Zm194.89,0h3.65v4.73h-3.65v-4.73ZM19.49,109.57h3.65v4.73h-3.65v-4.73h0Zm194.89,0h3.65v4.73h-3.65v-4.73ZM19.49,133.23h3.65v4.73h-3.65v-4.73h0Zm194.89,0h3.65v4.73h-3.65v-4.73ZM19.49,156.9h3.65v4.73h-3.65v-4.73h0Zm194.89,0h3.65v4.73h-3.65v-4.73ZM19.49,180.57h3.65v4.73h-3.65v-4.73h0Zm194.89,0h3.65v4.73h-3.65v-4.73ZM19.49,204.24h3.65v4.73h-3.65v-4.73h0Zm194.89,0h3.65v4.73h-3.65v-4.73ZM19.49,227.91h3.65v4.73h-3.65v-4.73h0Zm194.89,0h3.65v4.73h-3.65v-4.73ZM19.49,251.58h3.65v4.73h-3.65v-4.73h0Zm194.89,0h3.65v4.73h-3.65v-4.73Zm-194.89,23.67h3.65v4.73h-3.65v-4.73h0Zm194.89,0h3.65v4.73h-3.65v-4.73Zm-194.89,23.67h3.65v4.73h-3.65v-4.73h0Zm194.89,0h3.65v4.73h-3.65v-4.73Zm-194.89,23.67h3.65v4.73h-3.65v-4.73h0Zm194.89,0h3.65v4.73h-3.65v-4.73Zm-194.89,23.67h3.65v4.73h-3.65v-4.73h0Zm194.89,0h3.65v4.73h-3.65v-4.73ZM38.98,62.23h3.65v4.73h-3.65v-4.73Zm194.89,0h3.65v4.73h-3.65v-4.73ZM38.98,85.9h3.65v4.73h-3.65v-4.73Zm194.89,0h3.65v4.73h-3.65v-4.73ZM38.98,109.57h3.65v4.73h-3.65v-4.73Zm194.89,0h3.65v4.73h-3.65v-4.73Zm-194.89,23.66h3.65v4.73h-3.65v-4.73Zm194.89,0h3.65v4.73h-3.65v-4.73Zm-194.89,23.67h3.65v4.73h-3.65v-4.73Zm194.89,0h3.65v4.73h-3.65v-4.73Zm-194.89,23.67h3.65v4.73h-3.65v-4.73Zm194.89,0h3.65v4.73h-3.65v-4.73Zm-194.89,23.67h3.65v4.73h-3.65v-4.73Zm194.89,0h3.65v4.73h-3.65v-4.73Zm-194.89,23.67h3.65v4.73h-3.65v-4.73Zm194.89,0h3.65v4.73h-3.65v-4.73Zm-194.89,23.67h3.65v4.73h-3.65v-4.73Zm194.89,0h3.65v4.73h-3.65v-4.73Zm-194.89,23.67h3.65v4.73h-3.65v-4.73Zm194.89,0h3.65v4.73h-3.65v-4.73Zm-194.89,23.67h3.65v4.73h-3.65v-4.73Zm194.89,0h3.65v4.73h-3.65v-4.73Zm-194.89,23.67h3.65v4.73h-3.65v-4.73Zm194.89,0h3.65v4.73h-3.65v-4.73Zm-194.89,23.67h3.65v4.73h-3.65v-4.73Zm194.89,0h3.65v4.73h-3.65v-4.73ZM58.47,62.23h3.65v4.73h-3.65v-4.73Zm194.89,0h3.65v4.73h-3.65v-4.73ZM58.47,85.9h3.65v4.73h-3.65v-4.73Zm194.89,0h3.65v4.73h-3.65v-4.73ZM58.47,109.57h3.65v4.73h-3.65v-4.73Zm194.89,0h3.65v4.73h-3.65v-4.73Zm-194.89,23.66h3.65v4.73h-3.65v-4.73Zm194.89,0h3.65v4.73h-3.65v-4.73Zm-194.89,23.67h3.65v4.73h-3.65v-4.73Zm194.89,0h3.65v4.73h-3.65v-4.73Zm-194.89,23.67h3.65v4.73h-3.65v-4.73Zm194.89,0h3.65v4.73h-3.65v-4.73Zm-194.89,23.67h3.65v4.73h-3.65v-4.73Zm194.89,0h3.65v4.73h-3.65v-4.73Zm-194.89,23.67h3.65v4.73h-3.65v-4.73Zm194.89,0h3.65v4.73h-3.65v-4.73Zm-194.89,23.67h3.65v4.73h-3.65v-4.73Zm194.89,0h3.65v4.73h-3.65v-4.73Zm-194.89,23.67h3.65v4.73h-3.65v-4.73Zm194.89,0h3.65v4.73h-3.65v-4.73Zm-194.89,23.67h3.65v4.73h-3.65v-4.73Zm194.89,0h3.65v4.73h-3.65v-4.73Zm-194.89,23.67h3.65v4.73h-3.65v-4.73Zm194.89,0h3.65v4.73h-3.65v-4.73Zm-194.89,23.67h3.65v4.73h-3.65v-4.73Zm194.89,0h3.65v4.73h-3.65v-4.73ZM77.96,62.23h3.65v4.73h-3.65v-4.73Zm194.89,0h3.65v4.73h-3.65v-4.73Zm-194.89,23.67h3.65v4.73h-3.65v-4.73Zm194.89,0h3.65v4.73h-3.65v-4.73Zm-194.89,23.67h3.65v4.73h-3.65v-4.73Zm194.89,0h3.65v4.73h-3.65v-4.73h0Zm-194.89,23.66h3.65v4.73h-3.65v-4.73Zm194.89,0h3.65v4.73h-3.65v-4.73Zm-194.89,23.67h3.65v4.73h-3.65v-4.73Zm194.89,0h3.65v4.73h-3.65v-4.73Zm-194.89,23.67h3.65v4.73h-3.65v-4.73Zm194.89,0h3.65v4.73h-3.65v-4.73Zm-194.89,23.67h3.65v4.73h-3.65v-4.73Zm194.89,0h3.65v4.73h-3.65v-4.73Zm-194.89,23.67h3.65v4.73h-3.65v-4.73Zm194.89,0h3.65v4.73h-3.65v-4.73Zm-194.89,23.67h3.65v4.73h-3.65v-4.73Zm194.89,0h3.65v4.73h-3.65v-4.73Zm-194.89,23.67h3.65v4.73h-3.65v-4.73Zm194.89,0h3.65v4.73h-3.65v-4.73Zm-194.89,23.67h3.65v4.73h-3.65v-4.73Zm194.89,0h3.65v4.73h-3.65v-4.73Zm-194.89,23.67h3.65v4.73h-3.65v-4.73Zm194.89,0h3.65v4.73h-3.65v-4.73Zm-194.89,23.67h3.65v4.73h-3.65v-4.73Zm194.89,0h3.65v4.73h-3.65v-4.73ZM97.45,62.23h3.65v4.73h-3.65v-4.73Zm194.89,0h3.65v4.73h-3.65v-4.73Zm-194.89,23.67h3.65v4.73h-3.65v-4.73Zm194.89,0h3.65v4.73h-3.65v-4.73Zm-194.89,23.67h3.65v4.73h-3.65v-4.73Zm194.89,0h3.65v4.73h-3.65v-4.73Zm-194.89,23.66h3.65v4.73h-3.65v-4.73Zm194.89,0h3.65v4.73h-3.65v-4.73Zm-194.89,23.67h3.65v4.73h-3.65v-4.73Zm194.89,0h3.65v4.73h-3.65v-4.73Zm-194.89,23.67h3.65v4.73h-3.65v-4.73Zm194.89,0h3.65v4.73h-3.65v-4.73Zm-194.89,23.67h3.65v4.73h-3.65v-4.73Zm194.89,0h3.65v4.73h-3.65v-4.73Zm-194.89,23.67h3.65v4.73h-3.65v-4.73Zm194.89,0h3.65v4.73h-3.65v-4.73Zm-194.89,23.67h3.65v4.73h-3.65v-4.73Zm194.89,0h3.65v4.73h-3.65v-4.73Zm-194.89,23.67h3.65v4.73h-3.65v-4.73Zm194.89,0h3.65v4.73h-3.65v-4.73Zm-194.89,23.67h3.65v4.73h-3.65v-4.73Zm194.89,0h3.65v4.73h-3.65v-4.73Zm-194.89,23.67h3.65v4.73h-3.65v-4.73Zm194.89,0h3.65v4.73h-3.65v-4.73Zm-194.89,23.67h3.65v4.73h-3.65v-4.73Zm194.89,0h3.65v4.73h-3.65v-4.73ZM116.93,62.23h3.65v4.73h-3.65v-4.73Zm194.89,0h3.65v4.73h-3.65v-4.73Zm-194.89,23.67h3.65v4.73h-3.65v-4.73Zm194.89,0h3.65v4.73h-3.65v-4.73Zm-194.89,23.67h3.65v4.73h-3.65v-4.73Zm194.89,0h3.65v4.73h-3.65v-4.73Zm-194.89,23.66h3.65v4.73h-3.65v-4.73Zm194.89,0h3.65v4.73h-3.65v-4.73Zm-194.89,23.67h3.65v4.73h-3.65v-4.73Zm194.89,0h3.65v4.73h-3.65v-4.73Zm-194.89,23.67h3.65v4.73h-3.65v-4.73Zm194.89,0h3.65v4.73h-3.65v-4.73Zm-194.89,23.67h3.65v4.73h-3.65v-4.73Zm194.89,0h3.65v4.73h-3.65v-4.73Zm-194.89,23.67h3.65v4.73h-3.65v-4.73Zm194.89,0h3.65v4.73h-3.65v-4.73Zm-194.89,23.67h3.65v4.73h-3.65v-4.73Zm194.89,0h3.65v4.73h-3.65v-4.73Zm-194.89,23.67h3.65v4.73h-3.65v-4.73Zm194.89,0h3.65v4.73h-3.65v-4.73Zm-194.89,23.67h3.65v4.73h-3.65v-4.73Zm194.89,0h3.65v4.73h-3.65v-4.73Zm-194.89,23.67h3.65v4.73h-3.65v-4.73Zm194.89,0h3.65v4.73h-3.65v-4.73Zm-194.89,23.67h3.65v4.73h-3.65v-4.73Zm194.89,0h3.65v4.73h-3.65v-4.73ZM136.42,62.23h3.65v4.73h-3.65v-4.73Zm194.89,0h3.65v4.73h-3.65v-4.73Zm-194.89,23.67h3.65v4.73h-3.65v-4.73Zm194.89,0h3.65v4.73h-3.65v-4.73Zm-194.89,23.67h3.65v4.73h-3.65v-4.73Zm194.89,0h3.65v4.73h-3.65v-4.73Zm-194.89,23.66h3.65v4.73h-3.65v-4.73Zm194.89,0h3.65v4.73h-3.65v-4.73Zm-194.89,23.67h3.65v4.73h-3.65v-4.73Zm194.89,0h3.65v4.73h-3.65v-4.73Zm-194.89,23.67h3.65v4.73h-3.65v-4.73Zm194.89,0h3.65v4.73h-3.65v-4.73Zm-194.89,23.67h3.65v4.73h-3.65v-4.73Zm194.89,0h3.65v4.73h-3.65v-4.73Zm-194.89,23.67h3.65v4.73h-3.65v-4.73Zm194.89,0h3.65v4.73h-3.65v-4.73Zm-194.89,23.67h3.65v4.73h-3.65v-4.73Zm194.89,0h3.65v4.73h-3.65v-4.73Zm-194.89,23.67h3.65v4.73h-3.65v-4.73Zm194.89,0h3.65v4.73h-3.65v-4.73Zm-194.89,23.67h3.65v4.73h-3.65v-4.73Zm194.89,0h3.65v4.73h-3.65v-4.73Zm-194.89,23.67h3.65v4.73h-3.65v-4.73Zm194.89,0h3.65v4.73h-3.65v-4.73Zm-194.89,23.67h3.65v4.73h-3.65v-4.73Zm194.89,0h3.65v4.73h-3.65v-4.73ZM155.91,62.23h3.65v4.73h-3.65v-4.73Zm194.89,0h3.65v4.73h-3.65v-4.73Zm-194.89,23.67h3.65v4.73h-3.65v-4.73Zm194.89,0h3.65v4.73h-3.66v-4.73Zm-194.89,23.67h3.65v4.73h-3.65v-4.73Zm194.89,0h3.65v4.73h-3.66v-4.73h0Zm-194.89,23.66h3.65v4.73h-3.65v-4.73Zm194.89,0h3.65v4.73h-3.65v-4.73Zm-194.89,23.67h3.65v4.73h-3.65v-4.73Zm194.89,0h3.65v4.73h-3.66v-4.73Zm-194.89,23.67h3.65v4.73h-3.65v-4.73Zm194.89,0h3.65v4.73h-3.66v-4.73Zm-194.89,23.67h3.65v4.73h-3.65v-4.73Zm194.89,0h3.65v4.73h-3.66v-4.73Zm-194.89,23.67h3.65v4.73h-3.65v-4.73Zm194.89,0h3.65v4.73h-3.66v-4.73Zm-194.89,23.67h3.65v4.73h-3.65v-4.73Zm194.89,0h3.65v4.73h-3.66v-4.73Zm-194.89,23.67h3.65v4.73h-3.65v-4.73Zm194.89,0h3.65v4.73h-3.66v-4.73Zm-194.89,23.67h3.65v4.73h-3.65v-4.73Zm194.89,0h3.65v4.73h-3.66v-4.73Zm-194.89,23.67h3.65v4.73h-3.65v-4.73Zm194.89,0h3.65v4.73h-3.66v-4.73Zm-194.89,23.67h3.65v4.73h-3.65v-4.73Zm194.89,0h3.65v4.73h-3.66v-4.73ZM175.4,62.23h3.65v4.73h-3.65v-4.73Zm194.9,0h3.65v4.73h-3.65v-4.73Zm-194.9,23.67h3.65v4.73h-3.65v-4.73Zm194.89,0h3.65v4.73h-3.65v-4.73Zm-194.9,23.67h3.65v4.73h-3.65v-4.73Zm194.89,0h3.65v4.73h-3.65v-4.73h0Zm-194.89,23.66h3.65v4.73h-3.65v-4.73Zm194.9,0h3.65v4.73h-3.65v-4.73Zm-194.9,23.67h3.65v4.73h-3.65v-4.73Zm194.89,0h3.65v4.73h-3.65v-4.73Zm-194.9,23.67h3.65v4.73h-3.65v-4.73Zm194.89,0h3.65v4.73h-3.65v-4.73Zm-194.9,23.67h3.65v4.73h-3.65v-4.73Zm194.89,0h3.65v4.73h-3.65v-4.73Zm-194.9,23.67h3.65v4.73h-3.65v-4.73Zm194.89,0h3.65v4.73h-3.65v-4.73Zm-194.9,23.67h3.65v4.73h-3.65v-4.73Zm194.89,0h3.65v4.73h-3.65v-4.73Zm-194.9,23.67h3.65v4.73h-3.65v-4.73Zm194.89,0h3.65v4.73h-3.65v-4.73Zm-194.9,23.67h3.65v4.73h-3.65v-4.73Zm194.89,0h3.65v4.73h-3.65v-4.73Zm-194.9,23.67h3.65v4.73h-3.65v-4.73Zm194.89,0h3.65v4.73h-3.65v-4.73Zm-194.9,23.67h3.65v4.73h-3.65v-4.73Zm194.89,0h3.65v4.73h-3.65v-4.73Zm17.27-284.02h3.72v4.73h-3.72v-4.73Zm198.15,0h3.72v4.73h-3.72v-4.73Zm-198.15,23.67h3.71v4.73h-3.71v-4.73Zm198.15,0h3.72v4.73h-3.72v-4.73Zm-198.15,23.67h3.71v4.73h-3.71v-4.73Zm198.15,0h3.72v4.73h-3.72v-4.73Zm-198.15,23.66h3.71v4.73h-3.71v-4.73Zm198.15,0h3.72v4.73h-3.72v-4.73Zm-198.15,23.67h3.71v4.73h-3.71v-4.73Zm198.15,0h3.72v4.73h-3.72v-4.73Zm-198.15,23.67h3.71v4.73h-3.71v-4.73Zm198.15,0h3.72v4.73h-3.72v-4.73Zm-198.15,23.67h3.71v4.73h-3.71v-4.73Zm198.15,0h3.72v4.73h-3.72v-4.73Zm-198.15,23.67h3.71v4.73h-3.71v-4.73Zm198.15,0h3.72v4.73h-3.72v-4.73Zm-198.15,23.67h3.71v4.73h-3.71v-4.73Zm198.15,0h3.72v4.73h-3.72v-4.73Zm-198.15,23.67h3.71v4.73h-3.71v-4.73Zm198.15,0h3.72v4.73h-3.72v-4.73Zm-198.15,23.67h3.71v4.73h-3.71v-4.73Zm198.15,0h3.72v4.73h-3.72v-4.73Zm-198.15,23.67h3.71v4.73h-3.71v-4.73Zm198.15,0h3.72v4.73h-3.72v-4.73Zm-198.15,23.67h3.71v4.73h-3.71v-4.73Zm198.15,0h3.72v4.73h-3.72v-4.73ZM407.39,62.23h3.71v4.73h-3.72v-4.73Zm198.15,0h3.72v4.73h-3.72v-4.73Zm-198.15,23.67h3.71v4.73h-3.71v-4.73Zm198.15,0h3.72v4.73h-3.72v-4.73Zm-198.15,23.67h3.71v4.73h-3.71v-4.73h0Zm198.15,0h3.72v4.73h-3.72v-4.73Zm-198.15,23.66h3.71v4.73h-3.71v-4.73Zm198.15,0h3.72v4.73h-3.72v-4.73Zm-198.15,23.67h3.71v4.73h-3.71v-4.73Zm198.15,0h3.72v4.73h-3.72v-4.73Zm-198.15,23.67h3.71v4.73h-3.71v-4.73Zm198.15,0h3.72v4.73h-3.72v-4.73Zm-198.15,23.67h3.71v4.73h-3.71v-4.73Zm198.15,0h3.72v4.73h-3.72v-4.73Zm-198.15,23.67h3.71v4.73h-3.71v-4.73Zm198.15,0h3.72v4.73h-3.72v-4.73Zm-198.15,23.67h3.71v4.73h-3.71v-4.73Zm198.15,0h3.72v4.73h-3.72v-4.73Zm-198.15,23.67h3.71v4.73h-3.71v-4.73Zm198.15,0h3.72v4.73h-3.72v-4.73Zm-198.15,23.67h3.71v4.73h-3.71v-4.73Zm198.15,0h3.72v4.73h-3.72v-4.73Zm-198.15,23.67h3.71v4.73h-3.71v-4.73Zm198.15,0h3.72v4.73h-3.72v-4.73Zm-198.15,23.67h3.71v4.73h-3.71v-4.73Zm198.15,0h3.72v4.73h-3.72v-4.73ZM427.2,62.23h3.72v4.73h-3.72v-4.73Zm198.15,0h3.72v4.73h-3.72v-4.73Zm-198.15,23.67h3.72v4.73h-3.72v-4.73Zm198.15,0h3.72v4.73h-3.71v-4.73Zm-198.15,23.67h3.72v4.73h-3.72v-4.73Zm198.15,0h3.72v4.73h-3.71v-4.73h0Zm-198.15,23.66h3.72v4.73h-3.72v-4.73Zm198.15,0h3.72v4.73h-3.72v-4.73Zm-198.15,23.67h3.72v4.73h-3.72v-4.73Zm198.15,0h3.72v4.73h-3.71v-4.73Zm-198.15,23.67h3.72v4.73h-3.72v-4.73Zm198.15,0h3.72v4.73h-3.71v-4.73Zm-198.15,23.67h3.72v4.73h-3.72v-4.73Zm198.15,0h3.72v4.73h-3.71v-4.73Zm-198.15,23.67h3.72v4.73h-3.72v-4.73Zm198.15,0h3.72v4.73h-3.71v-4.73Zm-198.15,23.67h3.72v4.73h-3.72v-4.73Zm198.15,0h3.72v4.73h-3.71v-4.73Zm-198.15,23.67h3.72v4.73h-3.72v-4.73Zm198.15,0h3.72v4.73h-3.71v-4.73Zm-198.15,23.67h3.72v4.73h-3.72v-4.73Zm198.15,0h3.72v4.73h-3.71v-4.73Zm-198.15,23.67h3.72v4.73h-3.72v-4.73Zm198.15,0h3.72v4.73h-3.71v-4.73Zm-198.15,23.67h3.72v4.73h-3.72v-4.73Zm198.15,0h3.72v4.73h-3.71v-4.73ZM447.02,62.23h3.71v4.73h-3.71v-4.73Zm198.15,0h3.72v4.73h-3.72v-4.73Zm-198.15,23.67h3.71v4.73h-3.71v-4.73Zm198.15,0h3.72v4.73h-3.72v-4.73Zm-198.15,23.67h3.71v4.73h-3.71v-4.73Zm198.15,0h3.72v4.73h-3.72v-4.73Zm-198.15,23.66h3.71v4.73h-3.71v-4.73Zm198.15,0h3.72v4.73h-3.72v-4.73Zm-198.15,23.67h3.71v4.73h-3.71v-4.73Zm198.15,0h3.72v4.73h-3.72v-4.73Zm-198.15,23.67h3.71v4.73h-3.71v-4.73Zm198.15,0h3.72v4.73h-3.72v-4.73Zm-198.15,23.67h3.71v4.73h-3.71v-4.73Zm198.15,0h3.72v4.73h-3.72v-4.73Zm-198.15,23.67h3.71v4.73h-3.71v-4.73Zm198.15,0h3.72v4.73h-3.72v-4.73Zm-198.15,23.67h3.71v4.73h-3.71v-4.73Zm198.15,0h3.72v4.73h-3.72v-4.73Zm-198.15,23.67h3.71v4.73h-3.71v-4.73Zm198.15,0h3.72v4.73h-3.72v-4.73Zm-198.15,23.67h3.71v4.73h-3.71v-4.73Zm198.15,0h3.72v4.73h-3.72v-4.73Zm-198.15,23.67h3.71v4.73h-3.71v-4.73Zm198.15,0h3.72v4.73h-3.72v-4.73Zm-198.15,23.67h3.71v4.73h-3.71v-4.73Zm198.15,0h3.72v4.73h-3.72v-4.73ZM466.83,62.23h3.72v4.73h-3.72v-4.73Zm198.15,0h3.72v4.73h-3.72v-4.73Zm-198.15,23.67h3.71v4.73h-3.71v-4.73Zm198.15,0h3.72v4.73h-3.72v-4.73Zm-198.15,23.67h3.71v4.73h-3.71v-4.73Zm198.15,0h3.72v4.73h-3.72v-4.73Zm-198.15,23.66h3.71v4.73h-3.71v-4.73Zm198.15,0h3.72v4.73h-3.72v-4.73Zm-198.15,23.67h3.71v4.73h-3.71v-4.73Zm198.15,0h3.72v4.73h-3.72v-4.73Zm-198.15,23.67h3.71v4.73h-3.71v-4.73Zm198.15,0h3.72v4.73h-3.72v-4.73Zm-198.15,23.67h3.71v4.73h-3.71v-4.73Zm198.15,0h3.72v4.73h-3.72v-4.73Zm-198.15,23.67h3.71v4.73h-3.71v-4.73Zm198.15,0h3.72v4.73h-3.72v-4.73Zm-198.15,23.67h3.71v4.73h-3.71v-4.73Zm198.15,0h3.72v4.73h-3.72v-4.73Zm-198.15,23.67h3.71v4.73h-3.71v-4.73Zm198.15,0h3.72v4.73h-3.72v-4.73Zm-198.15,23.67h3.71v4.73h-3.71v-4.73Zm198.15,0h3.72v4.73h-3.72v-4.73Zm-198.15,23.67h3.71v4.73h-3.71v-4.73Zm198.15,0h3.72v4.73h-3.72v-4.73Zm-198.15,23.67h3.71v4.73h-3.71v-4.73Zm198.15,0h3.72v4.73h-3.72v-4.73ZM486.65,62.23h3.71v4.73h-3.71v-4.73Zm198.15,0h3.72v4.73h-3.72v-4.73Zm-198.15,23.67h3.71v4.73h-3.71v-4.73Zm198.15,0h3.72v4.73h-3.72v-4.73Zm-198.15,23.67h3.71v4.73h-3.71v-4.73Zm198.15,0h3.72v4.73h-3.72v-4.73Zm-198.15,23.66h3.71v4.73h-3.71v-4.73Zm198.15,0h3.72v4.73h-3.72v-4.73Zm-198.15,23.67h3.71v4.73h-3.71v-4.73Zm198.15,0h3.72v4.73h-3.72v-4.73Zm-198.15,23.67h3.71v4.73h-3.71v-4.73Zm198.15,0h3.72v4.73h-3.72v-4.73Zm-198.15,23.67h3.71v4.73h-3.71v-4.73Zm198.15,0h3.72v4.73h-3.72v-4.73Zm-198.15,23.67h3.71v4.73h-3.71v-4.73Zm198.15,0h3.72v4.73h-3.72v-4.73Zm-198.15,23.67h3.71v4.73h-3.71v-4.73Zm198.15,0h3.72v4.73h-3.72v-4.73Zm-198.15,23.67h3.71v4.73h-3.71v-4.73Zm198.15,0h3.72v4.73h-3.72v-4.73Zm-198.15,23.67h3.71v4.73h-3.71v-4.73Zm198.15,0h3.72v4.73h-3.72v-4.73Zm-198.15,23.67h3.71v4.73h-3.71v-4.73Zm198.15,0h3.72v4.73h-3.72v-4.73Zm-198.15,23.67h3.71v4.73h-3.71v-4.73Zm198.15,0h3.72v4.73h-3.72v-4.73ZM506.46,62.23h3.72v4.73h-3.72v-4.73Zm198.15,0h3.72v4.73h-3.72v-4.73Zm-198.15,23.67h3.72v4.73h-3.72v-4.73Zm198.15,0h3.72v4.73h-3.72v-4.73Zm-198.15,23.67h3.72v4.73h-3.72v-4.73Zm198.15,0h3.72v4.73h-3.72v-4.73Zm-198.15,23.66h3.72v4.73h-3.72v-4.73Zm198.15,0h3.72v4.73h-3.72v-4.73Zm-198.15,23.67h3.72v4.73h-3.72v-4.73Zm198.15,0h3.72v4.73h-3.72v-4.73Zm-198.15,23.67h3.72v4.73h-3.72v-4.73Zm198.15,0h3.72v4.73h-3.72v-4.73Zm-198.15,23.67h3.72v4.73h-3.72v-4.73Zm198.15,0h3.72v4.73h-3.72v-4.73Zm-198.15,23.67h3.72v4.73h-3.72v-4.73Zm198.15,0h3.72v4.73h-3.72v-4.73Zm-198.15,23.67h3.72v4.73h-3.72v-4.73Zm198.15,0h3.72v4.73h-3.72v-4.73Zm-198.15,23.67h3.72v4.73h-3.72v-4.73Zm198.15,0h3.72v4.73h-3.72v-4.73Zm-198.15,23.67h3.72v4.73h-3.72v-4.73Zm198.15,0h3.72v4.73h-3.72v-4.73Zm-198.15,23.67h3.72v4.73h-3.72v-4.73Zm198.15,0h3.72v4.73h-3.72v-4.73Zm-198.15,23.67h3.72v4.73h-3.72v-4.73Zm198.15,0h3.72v4.73h-3.72v-4.73ZM526.28,62.23h3.72v4.73h-3.72v-4.73Zm198.15,0h3.72v4.73h-3.72v-4.73Zm-198.15,23.67h3.72v4.73h-3.72v-4.73Zm198.15,0h3.72v4.73h-3.72v-4.73Zm-198.15,23.67h3.72v4.73h-3.72v-4.73Zm198.15,0h3.72v4.73h-3.72v-4.73Zm-198.15,23.66h3.72v4.73h-3.72v-4.73Zm198.15,0h3.72v4.73h-3.72v-4.73Zm-198.15,23.67h3.72v4.73h-3.72v-4.73Zm198.15,0h3.72v4.73h-3.72v-4.73Zm-198.15,23.67h3.72v4.73h-3.72v-4.73Zm198.15,0h3.72v4.73h-3.72v-4.73Zm-198.15,23.67h3.72v4.73h-3.72v-4.73Zm198.15,0h3.72v4.73h-3.72v-4.73Zm-198.15,23.67h3.72v4.73h-3.72v-4.73Zm198.15,0h3.72v4.73h-3.72v-4.73Zm-198.15,23.67h3.72v4.73h-3.72v-4.73Zm198.15,0h3.72v4.73h-3.72v-4.73Zm-198.15,23.67h3.72v4.73h-3.72v-4.73Zm198.15,0h3.72v4.73h-3.72v-4.73Zm-198.15,23.67h3.72v4.73h-3.72v-4.73Zm198.15,0h3.72v4.73h-3.72v-4.73Zm-198.15,23.67h3.72v4.73h-3.72v-4.73Zm198.15,0h3.72v4.73h-3.72v-4.73Zm-198.15,23.67h3.72v4.73h-3.72v-4.73Zm198.15,0h3.72v4.73h-3.72v-4.73ZM546.09,62.23h3.72v4.73h-3.72v-4.73Zm198.15,0h3.72v4.73h-3.72v-4.73Zm-198.15,23.67h3.72v4.73h-3.72v-4.73Zm198.15,0h3.72v4.73h-3.72v-4.73Zm-198.15,23.67h3.72v4.73h-3.72v-4.73Zm198.15,0h3.72v4.73h-3.72v-4.73Zm-198.15,23.66h3.72v4.73h-3.72v-4.73Zm198.15,0h3.72v4.73h-3.72v-4.73Zm-198.15,23.67h3.72v4.73h-3.72v-4.73Zm198.15,0h3.72v4.73h-3.72v-4.73Zm-198.15,23.67h3.72v4.73h-3.72v-4.73Zm198.15,0h3.72v4.73h-3.72v-4.73Zm-198.15,23.67h3.72v4.73h-3.72v-4.73Zm198.15,0h3.72v4.73h-3.72v-4.73Zm-198.15,23.67h3.72v4.73h-3.72v-4.73Zm198.15,0h3.72v4.73h-3.72v-4.73Zm-198.15,23.67h3.72v4.73h-3.72v-4.73Zm198.15,0h3.72v4.73h-3.72v-4.73Zm-198.15,23.67h3.72v4.73h-3.72v-4.73Zm198.15,0h3.72v4.73h-3.72v-4.73Zm-198.15,23.67h3.72v4.73h-3.72v-4.73Zm198.15,0h3.72v4.73h-3.72v-4.73Zm-198.15,23.67h3.72v4.73h-3.72v-4.73Zm198.15,0h3.72v4.73h-3.72v-4.73Zm-198.15,23.67h3.72v4.73h-3.72v-4.73Zm198.15,0h3.72v4.73h-3.72v-4.73ZM565.91,62.23h3.72v4.73h-3.72v-4.73Zm198.15,0h3.72v4.73h-3.72v-4.73Zm-198.15,23.67h3.72v4.73h-3.72v-4.73Zm198.15,0h3.72v4.73h-3.72v-4.73Zm-198.15,23.67h3.72v4.73h-3.72v-4.73Zm198.15,0h3.72v4.73h-3.72v-4.73Zm-198.15,23.66h3.72v4.73h-3.72v-4.73Zm198.15,0h3.72v4.73h-3.72v-4.73Zm-198.15,23.67h3.72v4.73h-3.72v-4.73Zm198.15,0h3.72v4.73h-3.72v-4.73Zm-198.15,23.67h3.72v4.73h-3.72v-4.73Zm198.15,0h3.72v4.73h-3.72v-4.73Zm-198.15,23.67h3.72v4.73h-3.72v-4.73Zm198.15,0h3.72v4.73h-3.72v-4.73Zm-198.15,23.67h3.72v4.73h-3.72v-4.73Zm198.15,0h3.72v4.73h-3.72v-4.73Zm-198.15,23.67h3.72v4.73h-3.72v-4.73Zm198.15,0h3.72v4.73h-3.72v-4.73Zm-198.15,23.67h3.72v4.73h-3.72v-4.73Zm198.15,0h3.72v4.73h-3.72v-4.73Zm-198.15,23.67h3.72v4.73h-3.72v-4.73Zm198.15,0h3.72v4.73h-3.72v-4.73Zm-198.15,23.67h3.72v4.73h-3.72v-4.73Zm198.15,0h3.72v4.73h-3.72v-4.73Zm-198.15,23.67h3.72v4.73h-3.72v-4.73Zm198.15,0h3.72v4.73h-3.72v-4.73Z"/><path id="d" class="f" d="M1062.23,182.94l-48.87,28.28-48.87-28.28v-56.56l48.87-28.28,48.87,28.28v56.56h0Zm-58.81-96.08l-49.36,28.57-49.36-28.57V29.72L954.06,1.16l49.36,28.56v57.14h0Zm-56.43,96.09l-49.36,28.28-49.37-28.28v-56.55l49.37-28.28,49.36,28.28v56.55Zm7.06,129.85l-49.36-28.57v-57.13l49.36-28.57,49.36,28.57v57.13l-49.36,28.57Zm283.21-30.59l-48.86,28.28-48.86-28.28v-56.56l48.86-28.28,48.86,28.28v56.56Zm-58.8-96.09l-49.36,28.57-49.36-28.57v-57.13l49.36-28.57,49.36,28.57v57.13Zm-56.43,96.09l-49.36,28.28-49.36-28.28v-56.55l49.36-28.28,49.36,28.28v56.55Zm7.06,129.85l-49.36-28.57v-57.14l49.36-28.57,49.37,28.57v57.13l-49.36,28.57h0Z"/></svg>