<?xml version="1.0" encoding="utf-8"?>
<!-- Generator: Adobe Illustrator 26.1.0, SVG Export Plug-In . SVG Version: 6.00 Build 0)  -->
<svg version="1.1" id="a" xmlns="http://www.w3.org/2000/svg" xmlns:xlink="http://www.w3.org/1999/xlink" x="0px" y="0px"
	 viewBox="0 0 414.6 535.9" style="enable-background:new 0 0 414.6 535.9;" xml:space="preserve">
<style type="text/css">
	.st0{fill:none;}
	.st1{opacity:0.25;}
	.st2{fill:#06456B;}
	.st3{opacity:0.6;fill:#5597D1;enable-background:new    ;}
	.st4{fill:#5597D1;}
	.st5{fill:#0071A2;}
	.st6{opacity:0.6;fill:#034D83;enable-background:new    ;}
	.st7{fill:#0B2753;}
	.st8{opacity:0.6;fill:#0071A2;enable-background:new    ;}
</style>
<rect class="st0" width="414.6" height="535.9"/>
<g id="b" transform="translate(-0.515)" class="st1">
	<path id="c" class="st2" d="M311.3,90.7c0,14.9-12.1,26.9-26.9,26.9s-26.9-12.1-26.9-26.9s12.1-26.9,26.9-26.9
		S311.3,75.8,311.3,90.7z"/>
	<path id="d" class="st3" d="M377,90.7c0,14.9-12.1,26.9-26.9,26.9s-26.9-12.1-26.9-26.9s12.1-26.9,26.9-26.9S377,75.8,377,90.7z"/>
	<path id="e" class="st4" d="M312.4,26.9c0,14.9-12.1,26.9-26.9,26.9s-26.9-12.1-26.9-26.9S270.6,0,285.4,0S312.4,12.1,312.4,26.9z"
		/>
	<path id="f" class="st2" d="M377,26.9c0,14.9-12.1,26.9-26.9,26.9s-26.9-12.1-26.9-26.9S335.2,0,350.1,0S377,12.1,377,26.9z"/>
	<path id="g" class="st5" d="M311.3,219.9c0,14.9-12.1,26.9-26.9,26.9s-26.9-12.1-26.9-26.9s12.1-26.9,26.9-26.9
		S311.3,205.1,311.3,219.9z M377,219.9c0,14.9-12.1,26.9-26.9,26.9s-26.9-12.1-26.9-26.9s12.1-26.9,26.9-26.9S377,205.1,377,219.9z"
		/>
	<path id="h" class="st6" d="M312.4,156.2c0,14.9-12.1,26.9-26.9,26.9s-26.9-12.1-26.9-26.9s12.1-26.9,26.9-26.9
		S312.4,141.3,312.4,156.2z"/>
	<path id="i" class="st4" d="M377,156.2c0,14.9-12.1,26.9-26.9,26.9s-26.9-12.1-26.9-26.9s12.1-26.9,26.9-26.9S377,141.3,377,156.2z
		"/>
	<path id="j" class="st5" d="M311.3,349.2c0,14.9-12.1,26.9-26.9,26.9s-26.9-12.1-26.9-26.9s12.1-26.9,26.9-26.9
		S311.3,334.3,311.3,349.2z M377,349.2c0,14.9-12.1,26.9-26.9,26.9s-26.9-12.1-26.9-26.9s12.1-26.9,26.9-26.9S377,334.3,377,349.2z"
		/>
	<path id="k" class="st4" d="M312.4,285.5c0,14.9-12.1,26.9-26.9,26.9s-26.9-12.1-26.9-26.9s12.1-26.9,26.9-26.9
		S312.4,270.6,312.4,285.5z"/>
	<path id="l" class="st5" d="M377,285.5c0,14.9-12.1,26.9-26.9,26.9s-26.9-12.1-26.9-26.9s12.1-26.9,26.9-26.9S377,270.6,377,285.5z
		"/>
	<path id="m" d="M182.1,349.2c0,14.9-12.1,26.9-26.9,26.9s-26.9-12.1-26.9-26.9s12.1-26.9,26.9-26.9S182.1,334.3,182.1,349.2
		L182.1,349.2z"/>
	<path id="n" class="st7" d="M247.7,349.2c0,14.9-12.1,26.9-26.9,26.9s-26.9-12.1-26.9-26.9s12.1-26.9,26.9-26.9
		S247.7,334.3,247.7,349.2L247.7,349.2z M183.1,285.5c0,14.9-12.1,26.9-26.9,26.9s-26.9-12.1-26.9-26.9s12.1-26.9,26.9-26.9
		S183.1,270.6,183.1,285.5z"/>
	<path id="o" class="st3" d="M247.7,285.5c0,14.9-12.1,26.9-26.9,26.9s-26.9-12.1-26.9-26.9s12.1-26.9,26.9-26.9
		S247.7,270.6,247.7,285.5L247.7,285.5z M53.9,409.3c0,14.9-12.1,26.9-26.9,26.9S0,424.2,0,409.3s12.1-26.9,26.9-26.9
		S53.9,394.5,53.9,409.3z"/>
	<path id="p" class="st4" d="M118.5,409.3c0,14.9-12.1,26.9-26.9,26.9s-26.9-12.1-26.9-26.9s12.1-26.9,26.9-26.9
		S118.5,394.5,118.5,409.3z"/>
	<path id="q" class="st5" d="M311.3,473.1c0,14.9-12.1,26.9-26.9,26.9s-26.9-12.1-26.9-26.9s12.1-26.9,26.9-26.9
		S311.3,458.2,311.3,473.1z"/>
	<path id="r" class="st4" d="M312.4,409.3c0,14.9-12.1,26.9-26.9,26.9s-26.9-12.1-26.9-26.9s12.1-26.9,26.9-26.9
		S312.4,394.5,312.4,409.3z"/>
	<path id="s" class="st8" d="M377,409.3c0,14.9-12.1,26.9-26.9,26.9s-26.9-12.1-26.9-26.9s12.1-26.9,26.9-26.9S377,394.5,377,409.3z
		"/>
</g>
</svg>
